<svg id="logo" xmlns="http://www.w3.org/2000/svg" xmlns:xlink="http://www.w3.org/1999/xlink" width="0.89in" height="2.76in" viewBox="0 0 63.82 198.74"><defs><style>.cls-1{fill:url(#linear-gradient);}.cls-2{fill:#666565;}.cls-3{fill:url(#linear-gradient-2);}.cls-4{fill:url(#linear-gradient-3);}.cls-5{fill:url(#radial-gradient);}.cls-6{stroke:#fff;stroke-width:0.25px;fill:url(#linear-gradient-4);}.cls-10,.cls-12,.cls-16,.cls-6{stroke-miterlimit:10;}.cls-7{fill:url(#linear-gradient-5);}.cls-10,.cls-12,.cls-13,.cls-14,.cls-15,.cls-16,.cls-8,.cls-9{fill:none;}.cls-10,.cls-12,.cls-9{stroke:#000;}.cls-15,.cls-9{stroke-linecap:round;}.cls-13,.cls-14,.cls-15,.cls-9{stroke-linejoin:round;}.cls-10,.cls-13,.cls-15,.cls-9{stroke-width:2px;}.cls-11{fill:#666665;}.cls-12{stroke-width:2.1px;}.cls-13,.cls-14,.cls-15,.cls-16{stroke:#d42027;}</style><linearGradient id="linear-gradient" x1="68.77" y1="117.01" x2="91.8" y2="117.01" gradientTransform="translate(132.02 67.94) rotate(90)" gradientUnits="userSpaceOnUse"><stop offset="0.25" stop-color="#5d7031"/><stop offset="1" stop-color="#9cbc48"/></linearGradient><linearGradient id="linear-gradient-2" x1="19.23" y1="76.87" x2="47" y2="76.87" xlink:href="#linear-gradient"/><linearGradient id="linear-gradient-3" x1="-17.59" y1="84.95" x2="-0.59" y2="84.95" xlink:href="#linear-gradient"/><radialGradient id="radial-gradient" cx="-47.27" cy="149.26" fx="182.03672529011067" fy="67.43109818219433" r="243.47" gradientTransform="translate(132.02 67.94) rotate(90)" gradientUnits="userSpaceOnUse"><stop offset="0.18" stop-color="#5d7031"/><stop offset="0.23" stop-color="#617433"/><stop offset="0.28" stop-color="#6f7e39"/><stop offset="0.33" stop-color="#859042"/><stop offset="0.38" stop-color="#a3a950"/><stop offset="0.44" stop-color="#cac961"/><stop offset="0.47" stop-color="#e5de6d"/><stop offset="0.49" stop-color="#e0dc6a"/><stop offset="0.61" stop-color="#c2ce5b"/><stop offset="0.74" stop-color="#adc451"/><stop offset="0.86" stop-color="#a0be4a"/><stop offset="0.98" stop-color="#9cbc48"/></radialGradient><linearGradient id="linear-gradient-4" x1="29.37" y1="122.21" x2="46.43" y2="122.21" xlink:href="#linear-gradient"/><linearGradient id="linear-gradient-5" x1="-13.57" y1="114.56" x2="6.63" y2="114.56" xlink:href="#linear-gradient"/></defs><title>fish_icon</title><path class="cls-1" d="M22.78,156.39s1.19-10.3-7.62-14.22c0,0-6.14-1.5-8-5.46,0,0,3.47,12.56,6.35,16.68,0,0,5.24,4.58,6.54,6.34"/><path class="cls-2" d="M38.34,68.32"/><path class="cls-3" d="M48.91,114.94a15,15,0,0,0,1.55-4.25S61,99.54,62.45,97c0,0-11-6.75-11.89-9.71,0,0-1-.82-1.26,2.67,0,0,0,3.3-.39,3.64,0,0-.44,1.17-1.07,1.07"/><path class="cls-4" d="M46.41,67.35a29.07,29.07,0,0,0,3.5-12.83s-.5-2.33-4.34-4.17c0,0-.66,0-1.33,1.17"/><path class="cls-5" d="M28.42,47.05c.24-1.49-4.69-13.2-4.69-13.2C9,10.16,11.21,1,11.21,1c5,0,19.16,9,19.16,9,5.75,4.71,9.6,1.95,9.6,1.95,21.58-10.38,21.69-9.1,21.69-9.1.12,5.78-10.23,27.91-10.23,27.91a108,108,0,0,0-4.72,10.44l-2,5.09c-.84,1.46-.54,13.2-.54,13.2,6.7,23.62,6,94.1,6,94.1l-.59,7.77s-3.77,30.43-12,35c0,0-3.75-7.25-7.74-11.51,0,0,.63,6.12,1,7.49l.39,5.3s-.44.41-6.26-7.69a79.88,79.88,0,0,1-4.71-12.52l-1.53-7.33c-1.49-6-4.34-11.7-5.37-16.78,0,0-3-14.74-1.2-39S15,97.67,19.62,78.61,26.46,59,28.42,47.05Z"/><path class="cls-6" d="M18.48,114.36S3.24,110.74,1.13,104.1A26.19,26.19,0,0,1,9.52,99a29.49,29.49,0,0,1,6.4-1.69s2.41.3,2.56,2.27c0,0-1.05,3.16,0,4.67"/><path class="cls-7" d="M21.85,74.56a39.13,39.13,0,0,1-10.08-9.79s-3-2.82-2.72-4.06c.17-.75,2.16-.29,4.88-.11a22.1,22.1,0,0,0,8.65-5.41s1.47-1.83,2.32,0c0,0-.12.36,1,5"/><path class="cls-8" d="M23.87,36.84"/><path class="cls-8" d="M49.29,36.84"/><polygon points="54.34 6.06 46.14 27.47 52.44 5.43 54.34 6.06"/><polygon points="44.23 10.33 41.92 21.8 42.24 10.11 44.23 10.33"/><polygon points="33.68 11.49 34.95 21.8 31.73 11.93 33.68 11.49"/><polygon points="28.03 8.29 30.85 25.47 26.07 8.73 28.03 8.29"/><polygon points="21.73 4.31 28.13 26.47 19.83 4.95 21.73 4.31"/><polygon points="16.18 1.3 23.88 26.2 14.3 1.96 16.18 1.3"/><path d="M40,183.94a.82.82,0,0,0,.83-.64c0-.07.16-.53.19-.67a2.38,2.38,0,0,0,0-1,3.76,3.76,0,0,0-.43-1.1,2.05,2.05,0,0,0-1-1c-.35-.21-1.17-.12-1.36.28-.43.89-1.13,1.44-.85,2.44a1.19,1.19,0,0,0,.37.89,1.88,1.88,0,0,0,.93.47,1.68,1.68,0,0,0,.58.21"/><path class="cls-9" d="M27.05,41.26s6.26,4.59-9.76,44.92c0,0,.12-.76-3.3,11.13"/><path class="cls-10" d="M12.28,112.4c-.2,5.55-.58,16.6-.46,24.31,0,0,0,1.61.11,4.25"/><path d="M22.68,156.37a17.15,17.15,0,0,0-.34-4.23,15.14,15.14,0,0,0-1.41-4,11.29,11.29,0,0,0-2.54-3.27,12.79,12.79,0,0,0-3.46-2.2l.1,0a16.43,16.43,0,0,1-2.46-.79,16.07,16.07,0,0,1-2.33-1.12,9.45,9.45,0,0,1-3.78-3.77L8,136.5c.85,2.83,1.88,5.63,2.89,8.4.52,1.38,1,2.77,1.56,4.12a26.68,26.68,0,0,0,1.8,3.89l-.13-.15c1.11,1.07,2.17,2.16,3.2,3.29.52.57,1,1.15,1.51,1.75a15,15,0,0,1,1.36,1.88.1.1,0,0,1,0,.13.08.08,0,0,1-.12,0c-1.08-1-2.3-2-3.46-2.94L13,154l-.09-.1,0,0a21.21,21.21,0,0,1-2.28-4.05,44.47,44.47,0,0,1-1.66-4.22c-.48-1.43-.93-2.87-1.33-4.31s-.8-2.89-1.17-4.35v0a.8.8,0,0,1,1.5-.53,7,7,0,0,0,1.25,1.81,11.09,11.09,0,0,0,1.8,1.45,15.66,15.66,0,0,0,2.1,1.13,16.42,16.42,0,0,0,2.24.83l.06,0,0,0a13.37,13.37,0,0,1,3.66,2.57,11.9,11.9,0,0,1,2.51,3.65,15.9,15.9,0,0,1,1.21,4.2,17,17,0,0,1,.1,4.34.12.12,0,0,1-.11.09.1.1,0,0,1-.09-.11Z"/><path d="M48.91,114.94c.27-.71.51-1.43.73-2.15.11-.36.2-.72.28-1.08a3.84,3.84,0,0,0,.12-1v-.13l.12-.15c1.93-2.35,3.9-4.67,5.85-7,1-1.15,2-2.3,2.92-3.47a34.77,34.77,0,0,0,2.65-3.46l.35,1.33c-1.13-.68-2.2-1.41-3.28-2.14s-2.14-1.49-3.17-2.3a38.08,38.08,0,0,1-3-2.54,19.27,19.27,0,0,1-1.39-1.46,5.45,5.45,0,0,1-1.15-1.92l.21.32a.26.26,0,0,0,.3,0s0,0,0,0a2,2,0,0,0-.27.58A9.46,9.46,0,0,0,49.79,90v0c0,.63-.11,1.25-.19,1.87,0,.31-.08.62-.15.93a4.21,4.21,0,0,1-.12.48,1.15,1.15,0,0,1-.27.53l.06-.09a2.92,2.92,0,0,1-.51.7.86.86,0,0,1-.77.29.74.74,0,0,0,.58-.44,3.09,3.09,0,0,0,.28-.71l.06-.09a1.62,1.62,0,0,0,.07-.31l0-.43c0-.3,0-.6,0-.91,0-.6,0-1.22-.06-1.82v0A9.82,9.82,0,0,1,49,88.12a3.15,3.15,0,0,1,.35-1,1.3,1.3,0,0,1,.57-.54,1.07,1.07,0,0,1,1.08.14l.12.09.1.23a4.55,4.55,0,0,0,1,1.3,18.06,18.06,0,0,0,1.38,1.23c1,.8,2,1.57,3,2.3s2.1,1.45,3.17,2.16S61.9,95.43,63,96.11l.85.54-.5.79a34.49,34.49,0,0,1-2.93,3.74c-1,1.15-2.07,2.26-3.11,3.38-2.11,2.2-4.27,4.35-6.51,6.42l.11-.27a4.83,4.83,0,0,1-.32,1.19,11.37,11.37,0,0,1-.48,1.06A19.44,19.44,0,0,1,48.91,114.94Z"/><path d="M48.86,109.52,59.53,97.64l-9.9,12.52a.5.5,0,0,1-.79-.62Z"/><path d="M48.92,104.71l7.66-7.87-6.91,8.53a.51.51,0,0,1-.71.08.52.52,0,0,1-.07-.71Z"/><path d="M49.28,100.42,54,95.53l-3.9,5.52a.5.5,0,0,1-.7.12.49.49,0,0,1-.12-.69Z"/><path d="M48.7,96.76l3.68-3.89-2.9,4.51a.5.5,0,0,1-.84-.54Z"/><path d="M46.41,67.35c.66-2.18,1.2-4.3,1.63-6.44.21-1.07.39-2.14.53-3.21s.26-2.15.37-3.23l0,.25a2.83,2.83,0,0,0-.17-.47c-.09-.19-.2-.38-.31-.57a8.32,8.32,0,0,0-.86-1.06,8.91,8.91,0,0,0-1.06-1,13.66,13.66,0,0,0-1.2-.87l.21,0s-.14,0-.23,0A1.84,1.84,0,0,0,45,51a4,4,0,0,0-.74.54,2.6,2.6,0,0,1,.36-.93,1.5,1.5,0,0,1,.35-.41,1.16,1.16,0,0,1,.62-.31h0l.16.06a12.15,12.15,0,0,1,1.5.62,8.69,8.69,0,0,1,1.4.89,6.39,6.39,0,0,1,1.24,1.2,6.93,6.93,0,0,1,.52.74,3.41,3.41,0,0,1,.41,1l0,.09v.16A24.6,24.6,0,0,1,50.53,58a22.46,22.46,0,0,1-.83,3.35,21.11,21.11,0,0,1-1.35,3.17A13.4,13.4,0,0,1,46.41,67.35Z"/><path class="cls-11" d="M43.61,150.84l.19-.11a.6.6,0,0,0,.58-.45c0-.05.11-.38.13-.47a1.59,1.59,0,0,0,0-.72,2.53,2.53,0,0,0-.3-.78,2.39,2.39,0,0,0-1-.83c-.25-.15-.63-.2-.77.08a2.93,2.93,0,0,0-.52,2,.8.8,0,0,0,.26.62,1.26,1.26,0,0,0,.65.33,1.14,1.14,0,0,0,.4.15C43.21,150.74,43.52,150.89,43.61,150.84Z"/><path class="cls-11" d="M43.46,136.48l.12-.07a.35.35,0,0,0,.35-.27s.07-.23.08-.29a.89.89,0,0,0,0-.43,1.32,1.32,0,0,0-.77-1c-.15-.09-.38-.12-.46.05a1.77,1.77,0,0,0-.32,1.2.46.46,0,0,0,.16.38.85.85,0,0,0,.39.2,1.06,1.06,0,0,0,.25.09C43.22,136.42,43.41,136.51,43.46,136.48Z"/><path class="cls-11" d="M46.8,62.23l.11-.07a.35.35,0,0,0,.35-.27s.07-.23.08-.29a.89.89,0,0,0,0-.43,1.28,1.28,0,0,0-.18-.47,1.44,1.44,0,0,0-.58-.51c-.15-.09-.39-.12-.47.05a1.77,1.77,0,0,0-.32,1.2.53.53,0,0,0,.16.38,1,1,0,0,0,.39.2,1.25,1.25,0,0,0,.25.09C46.56,62.17,46.74,62.26,46.8,62.23Z"/><path class="cls-11" d="M45.77,54.37l.07,0a.23.23,0,0,0,.23-.17,1.67,1.67,0,0,1,0-.18.88.88,0,0,0,0-.28,1.17,1.17,0,0,0-.12-.3.87.87,0,0,0-.38-.33c-.1-.06-.25-.08-.3,0s-.28.5-.2.77a.27.27,0,0,0,.1.24.5.5,0,0,0,.25.13.44.44,0,0,0,.16.06S45.73,54.39,45.77,54.37Z"/><path class="cls-11" d="M47.77,57.35l0,0a.16.16,0,0,0,.17-.12s0-.11,0-.14a.44.44,0,0,0,0-.2.72.72,0,0,0-.08-.22.66.66,0,0,0-.28-.24c-.07,0-.18-.06-.22,0a.8.8,0,0,0-.15.57.26.26,0,0,0,.07.17.44.44,0,0,0,.19.1l.11,0S47.74,57.36,47.77,57.35Z"/><path class="cls-12" d="M13.53,153.39c1.05,5.08,3.92,10.75,5.42,16.76l1.55,7.33A80.78,80.78,0,0,0,25.25,190c5.85,8.08,6.29,7.67,6.29,7.67l-.41-5.29c-.38-1.38-1-7.49-1-7.49,4,4.25,7.78,11.49,7.78,11.49,8.25-4.63,11.93-35.07,11.93-35.07l.57-7.77S50.83,83,44.06,59.44c0,0-.34-11.74.5-13.2l2-5.1a108,108,0,0,1,4.69-10.46S61.51,8.52,61.37,2.75c0,0-.12-1.29-21.67,9.16,0,0-3.84,2.77-9.6-1.92,0,0-14.19-8.94-19.19-8.94,0,0-2.18,9.2,12.62,32.84,0,0,5,11.7,4.73,13.18"/><path class="cls-13" d="M32.35,190.27"/><path class="cls-11" d="M38,141.1l.11-.07a.35.35,0,0,0,.35-.27s.07-.23.08-.28a.93.93,0,0,0,0-.44,1.28,1.28,0,0,0-.18-.47,1.35,1.35,0,0,0-.58-.5c-.15-.09-.39-.12-.47.05a1.75,1.75,0,0,0-.32,1.2.52.52,0,0,0,.16.37.77.77,0,0,0,.39.2.63.63,0,0,0,.25.09C37.72,141,37.9,141.13,38,141.1Z"/><path class="cls-11" d="M42.14,107.15l.11-.07a.36.36,0,0,0,.36-.27s.07-.23.08-.29a1,1,0,0,0,0-.43,1.76,1.76,0,0,0-.18-.47,1.47,1.47,0,0,0-.59-.51c-.15-.09-.38-.11-.46,0a1.72,1.72,0,0,0-.32,1.2.48.48,0,0,0,.15.38.84.84,0,0,0,.4.2,1,1,0,0,0,.24.09C41.9,107.09,42.09,107.18,42.14,107.15Z"/><path class="cls-11" d="M40.15,72.27l.19-.12a.59.59,0,0,0,.58-.45s.11-.37.13-.47a1.74,1.74,0,0,0,0-.72,2.57,2.57,0,0,0-.3-.77,2.32,2.32,0,0,0-1-.83c-.25-.16-.63-.2-.77.08a2.87,2.87,0,0,0-.52,2,.82.82,0,0,0,.26.62,1.26,1.26,0,0,0,.65.33,1.38,1.38,0,0,0,.4.15C39.75,72.17,40.06,72.32,40.15,72.27Z"/><path class="cls-11" d="M31.22,75.76l.19-.12a.58.58,0,0,0,.58-.45s.11-.37.13-.46a1.63,1.63,0,0,0,0-.73,2.57,2.57,0,0,0-.3-.77,2.32,2.32,0,0,0-1-.83c-.25-.15-.63-.2-.77.08a2.93,2.93,0,0,0-.52,2,.82.82,0,0,0,.26.62,1.26,1.26,0,0,0,.65.33,1.38,1.38,0,0,0,.4.15C30.82,75.66,31.13,75.81,31.22,75.76Z"/><path class="cls-11" d="M38,83l.11-.07a.35.35,0,0,0,.35-.27s.07-.23.08-.28a.94.94,0,0,0,0-.44,1.28,1.28,0,0,0-.18-.47,1.35,1.35,0,0,0-.58-.5c-.15-.1-.39-.12-.47,0A1.73,1.73,0,0,0,37,82.24a.53.53,0,0,0,.16.38.77.77,0,0,0,.39.2,1.25,1.25,0,0,0,.25.09C37.72,83,37.9,83.06,38,83Z"/><path class="cls-11" d="M44.2,96.72l.08,0a.23.23,0,0,0,.25-.19s0-.16.06-.2a.69.69,0,0,0,0-.32,1,1,0,0,0-.13-.33,1.16,1.16,0,0,0-.42-.37c-.11-.06-.28-.08-.33,0a1.23,1.23,0,0,0-.23.86.35.35,0,0,0,.11.27.53.53,0,0,0,.28.14.56.56,0,0,0,.18.07S44.16,96.74,44.2,96.72Z"/><path class="cls-11" d="M38.69,118.23l.09,0A.26.26,0,0,0,39,118s0-.17.06-.21a.81.81,0,0,0,0-.31,1,1,0,0,0-.55-.7c-.1-.06-.27-.08-.33,0a1.28,1.28,0,0,0-.23.86.39.39,0,0,0,.11.27,4.28,4.28,0,0,0,.46.21S38.65,118.25,38.69,118.23Z"/><path class="cls-11" d="M37.09,148.63l.08,0a.25.25,0,0,0,.26-.19s0-.17,0-.2a.69.69,0,0,0,0-.32,1,1,0,0,0-.13-.33,1.08,1.08,0,0,0-.42-.37c-.11-.06-.27-.08-.33,0a1.23,1.23,0,0,0-.23.86.39.39,0,0,0,.11.27.53.53,0,0,0,.29.14.51.51,0,0,0,.17.07S37.05,148.65,37.09,148.63Z"/><path d="M33,189s-4.18-4.18-3.45-5.63c0,0-4,7.36,2.77,15.36Z"/><path d="M36.76,188.51q-1.2-2.28-2.56-4.46a25.83,25.83,0,0,0-3-4.1,4.88,4.88,0,0,0-.92-.75c-.33-.18-.57-.25-.74-.12-.45.23-.51,1-.33,1.74a24.08,24.08,0,0,0,2,4.63l-.08.06a11.73,11.73,0,0,1-2.84-4.45,4,4,0,0,1-.13-1.48,1.82,1.82,0,0,1,1-1.38,1.39,1.39,0,0,1,.46-.14,1.49,1.49,0,0,1,.48,0,2.16,2.16,0,0,1,.73.35,5.75,5.75,0,0,1,1,1,25.56,25.56,0,0,1,2.84,4.4q1.2,2.3,2.22,4.67Z"/><path d="M44.44,164.43a30.85,30.85,0,0,0-6-3.72,18,18,0,0,0-6.6-1.83,9.33,9.33,0,0,0-6.17,1.77,19.17,19.17,0,0,0-4.49,4.85l-.16.23-.13.07a4.73,4.73,0,0,0-.84.54,5.11,5.11,0,0,0-.74.73,3.26,3.26,0,0,0-.52.91,3.91,3.91,0,0,0-.22,1.11l-.19,0a3.16,3.16,0,0,1-.26-1.26,3.49,3.49,0,0,1,.27-1.31,4.71,4.71,0,0,1,.68-1.17,4.81,4.81,0,0,1,1-1l-.29.3A12.72,12.72,0,0,1,24.6,159a11.5,11.5,0,0,1,7.39-1.5,18.23,18.23,0,0,1,6.88,2.45,28.57,28.57,0,0,1,5.7,4.35Z"/><path d="M39.21,167a19.07,19.07,0,0,0-3.72-.84,15.26,15.26,0,0,0-3.76,0,10.59,10.59,0,0,0-3.48,1.11,8.85,8.85,0,0,0-2.67,2.35l.1-.19a21.22,21.22,0,0,0-.75,2.67,8.87,8.87,0,0,0-.19,1.3,1.77,1.77,0,0,0,.08.8l-.73-.44c.61,0,1.28,0,1.92-.06s1.28-.12,1.89-.22A4.42,4.42,0,0,0,30.83,172l.27-.37.27,0a11.33,11.33,0,0,1,1.4-.09,10.76,10.76,0,0,1,1.39,0,6.58,6.58,0,0,1,2.68.73l-.07.19a9.28,9.28,0,0,0-2.58.12c-.42.06-.84.16-1.26.24s-.85.21-1.23.32l.54-.41a4.22,4.22,0,0,1-1.76,1.83,7.17,7.17,0,0,1-2.17.84,11.83,11.83,0,0,1-2.2.28,14.75,14.75,0,0,1-2.19-.09l-.53-.06-.2-.39A2.31,2.31,0,0,1,22.9,174a4.93,4.93,0,0,1,.06-.88,13.55,13.55,0,0,1,.34-1.52,27.69,27.69,0,0,1,1-2.81l.06-.12.05-.06a10.38,10.38,0,0,1,3.28-2.5,10.89,10.89,0,0,1,3.93-1,15.68,15.68,0,0,1,3.94.35,16.63,16.63,0,0,1,3.71,1.22Z"/><path class="cls-14" d="M32.7,11.71"/><path class="cls-14" d="M24.87,7.63"/><path d="M36.72,184.15a4.24,4.24,0,0,1-.78-1.83,5,5,0,0,1,.11-2,4.44,4.44,0,0,1,.79-1.87,3,3,0,0,1,1.68-1l0,.09a2.69,2.69,0,0,0-1.29,1.22,3.61,3.61,0,0,0-.41,1.69c0,.6.1,1.19.08,1.79a11.59,11.59,0,0,1-.12,1.91Z"/><path d="M18.48,114.36a39.16,39.16,0,0,1-5.12-1.08,38.76,38.76,0,0,1-5-1.76,22.64,22.64,0,0,1-4.67-2.66A9.51,9.51,0,0,1,.19,104.4L0,103.83l.43-.42a20.73,20.73,0,0,1,3.44-2.64,27.49,27.49,0,0,1,7.79-3.37,26.84,26.84,0,0,1,4.16-.73H16A4.14,4.14,0,0,1,17,97a4.67,4.67,0,0,1,.92.57,2.8,2.8,0,0,1,.7.89,2.76,2.76,0,0,1,.26,1.08v.1l0,.07a10.45,10.45,0,0,0-.62,2.24,3.78,3.78,0,0,0,.21,2.3,3.73,3.73,0,0,1-.69-2.33,10,10,0,0,1,.29-2.48l0,.17a1.72,1.72,0,0,0-.78-1.17,2.74,2.74,0,0,0-.69-.33,3.69,3.69,0,0,0-.75-.15H16a31.44,31.44,0,0,0-7.6,2.53,31.16,31.16,0,0,0-3.48,1.94,26,26,0,0,0-3.11,2.37l.24-1a8.52,8.52,0,0,0,2.78,3.63,18.43,18.43,0,0,0,2,1.46A25.07,25.07,0,0,0,9,110.2,74.92,74.92,0,0,0,18.48,114.36Z"/><path class="cls-15" d="M13.3,101.82"/><path d="M3.75,101.82a38.5,38.5,0,0,0,3.63,3.82,20.49,20.49,0,0,0,2.06,1.66,8.84,8.84,0,0,0,2.33,1.24,9,9,0,0,1-2.47-1A21,21,0,0,1,7.07,106,39,39,0,0,1,3,102.49a.5.5,0,0,1,0-.71.5.5,0,0,1,.71,0l0,0Z"/><path d="M10,99.12a4.28,4.28,0,0,0,0,1.82,6.43,6.43,0,0,0,.66,1.84,8.93,8.93,0,0,0,1.16,1.65c.22.25.47.49.71.73l.77.68-.85-.58c-.27-.22-.55-.42-.81-.65a9.46,9.46,0,0,1-1.4-1.56,6.94,6.94,0,0,1-1-1.92A5.2,5.2,0,0,1,9,98.88Z"/><path d="M21.85,74.56a30.46,30.46,0,0,1-5.93-4A29.14,29.14,0,0,1,13.3,68.1,27.19,27.19,0,0,1,11,65.28l.14.16a17.61,17.61,0,0,1-1.83-1.93,10.28,10.28,0,0,1-.8-1.16,4.34,4.34,0,0,1-.33-.75,2,2,0,0,1-.06-1.19,1.43,1.43,0,0,1,.63-.81,1.71,1.71,0,0,1,.6-.22,3.66,3.66,0,0,1,.83-.07c.48,0,.91,0,1.34.07.85.08,1.66.18,2.47.24l-.35,0a23.84,23.84,0,0,0,2.91-1.2,22.17,22.17,0,0,0,2.78-1.55A17.55,17.55,0,0,0,21.81,55l.29-.27a2.43,2.43,0,0,1,.38-.34,2.61,2.61,0,0,1,.95-.51,1.43,1.43,0,0,1,1.29.23,2.07,2.07,0,0,1,.63.9l0,.36c0-.14,0-.08,0-.1v.21l0,.3.05.63.14,1.26.28,2.54c-.29-.8-.58-1.61-.83-2.43-.14-.4-.25-.82-.36-1.23l-.16-.64-.07-.33,0-.17v-.17a.84.84,0,0,1,0-.18l0,.37a1,1,0,0,0-.36-.42c-.11,0-.16,0-.29,0a1.61,1.61,0,0,0-.45.34,2.32,2.32,0,0,0-.21.25l-.29.33a16.79,16.79,0,0,1-2.54,2.38,23.73,23.73,0,0,1-2.9,1.85,22.42,22.42,0,0,1-3.19,1.39l-.15.05h-.21c-.85,0-1.71-.13-2.53-.21-.4,0-.81-.08-1.16-.09a2.24,2.24,0,0,0-.43,0s-.05,0,0,0A.59.59,0,0,0,10,61c0-.15,0-.05,0,0a3,3,0,0,0,.17.4,8.67,8.67,0,0,0,.62.91A20.19,20.19,0,0,0,12.4,64.1l.09.09,0,.07a38.45,38.45,0,0,0,4.26,5.42A65,65,0,0,0,21.85,74.56Z"/><polygon points="22.36 56.01 22.78 60.12 20.48 56.69 22.36 56.01"/><path class="cls-16" d="M17.52,59.26"/><polygon points="18.42 58.83 20.56 65.6 16.62 59.69 18.42 58.83"/><path class="cls-16" d="M13.93,60.12"/><polygon points="14.78 59.79 19.04 68.62 13.08 60.84 14.78 59.79"/><path d="M27.93,42.25c.75,1.62,1.38,3.23,2,4.87s1.12,3.31,1.55,5a35.81,35.81,0,0,1,1,5.12,18.78,18.78,0,0,1-.07,5.19,18.63,18.63,0,0,0-.42-5.11,34,34,0,0,0-1.44-4.91c-.57-1.6-1.25-3.17-2-4.71S27,44.63,26.17,43.19Z"/><path d="M28.26,64.47l-1.64,9.41c-.56,3.14-1.09,6.27-1.6,9.41-1,6.28-2.06,12.56-2.9,18.87s-1.67,12.61-2.17,19c-.26,3.16-.44,6.34-.43,9.51a33.26,33.26,0,0,0,1,9.43A31.59,31.59,0,0,1,19,130.63c-.11-3.19,0-6.39.15-9.58.35-6.37,1.11-12.71,1.95-19s1.94-12.6,3.13-18.86S26.75,70.66,28.26,64.47Z"/><path d="M15.77,142a28.09,28.09,0,0,1,1.79,3.26,25.89,25.89,0,0,1,1.33,3.43,17.73,17.73,0,0,1,.7,3.61,10.92,10.92,0,0,1-.33,3.61,12.59,12.59,0,0,0-1.08-7,23,23,0,0,0-1.62-3.16,26.1,26.1,0,0,0-2-2.9h0a.76.76,0,0,1,.11-1.06.75.75,0,0,1,1.06.12Z"/><path d="M11,139.68c.86,1.81,1.69,3.62,2.46,5.47.39.92.76,1.85,1.09,2.79.17.47.32.95.46,1.43a3.72,3.72,0,0,1,.17,1.48,3.54,3.54,0,0,0-.35-1.42c-.19-.46-.4-.9-.62-1.34-.45-.89-.93-1.75-1.42-2.61-1-1.71-2-3.4-3.1-5.06h0a.74.74,0,0,1,.22-1,.75.75,0,0,1,1,.22A.56.56,0,0,0,11,139.68Z"/><path class="cls-11" d="M29.9,39.68l.19-.12a.59.59,0,0,0,.58-.45s.11-.37.13-.47a1.74,1.74,0,0,0,0-.72,2.47,2.47,0,0,0-.3-.77,2.32,2.32,0,0,0-1-.83c-.25-.16-.64-.2-.77.08a2.9,2.9,0,0,0-.53,2,.9.9,0,0,0,.26.63,1.42,1.42,0,0,0,.66.33,1.74,1.74,0,0,0,.4.15C29.5,39.58,29.81,39.72,29.9,39.68Z"/><path d="M46.77,177.54a3.72,3.72,0,0,1-1.71-.35c-.46-.19-.68-.68-1-1a8.5,8.5,0,0,0-1.13-.87,3.2,3.2,0,0,0-1.37-.51l0-.2a3.18,3.18,0,0,1,1.71-.24,5.6,5.6,0,0,1,1.67.46,3.09,3.09,0,0,1,1.48.82,2.57,2.57,0,0,1,.57,1.76Z"/><path class="cls-11" d="M44.4,171.2l.11-.07a.35.35,0,0,0,.35-.27s.07-.23.08-.28a.93.93,0,0,0,0-.44,1.28,1.28,0,0,0-.18-.47,1.35,1.35,0,0,0-.58-.5c-.15-.09-.39-.12-.47.05a1.74,1.74,0,0,0-.32,1.19.53.53,0,0,0,.16.38.76.76,0,0,0,.4.2,1,1,0,0,0,.24.09C44.16,171.14,44.34,171.23,44.4,171.2Z"/><path d="M45.49,54.52a32.16,32.16,0,0,1-2.33-6A43.51,43.51,0,0,1,42,42.22a54.89,54.89,0,0,1-.55-6.4,21.76,21.76,0,0,1,.67-6.38l.15,0a21.8,21.8,0,0,0-.08,6.3,54.92,54.92,0,0,0,1,6.23c.43,2.07,1,4.09,1.44,6.16s.79,4.16,1,6.3Z"/><path class="cls-11" d="M38.68,47.79l.11-.07a.37.37,0,0,0,.36-.27s.07-.23.08-.28a1.3,1.3,0,0,0,0-.44,1.76,1.76,0,0,0-.18-.47,1.44,1.44,0,0,0-.59-.5c-.15-.1-.38-.12-.47.05A1.78,1.78,0,0,0,37.68,47a.53.53,0,0,0,.16.38.84.84,0,0,0,.4.2,1,1,0,0,0,.24.09C38.44,47.73,38.63,47.82,38.68,47.79Z"/></svg>