<?xml version="1.0" encoding="utf-8"?>
<!-- Generator: Adobe Illustrator 23.0.2, SVG Export Plug-In . SVG Version: 6.00 Build 0)  -->
<svg version="1.1" id="Layer_1" xmlns="http://www.w3.org/2000/svg" xmlns:xlink="http://www.w3.org/1999/xlink" x="0px" y="0px"
	 viewBox="0 0 45 45" style="enable-background:new 0 0 45 45;" xml:space="preserve">
<style type="text/css">
	.st0{fill:#5D7031;}
	.st1{fill:#FFFFFF;}
</style>
<g>
	<rect class="st0" width="45" height="45"/>
	<path class="st1" d="M19.4,4.4h-2L16,9.7l-1.4-5.3h-2.1c0.4,1.3,0.9,2.5,1.3,3.8c0.6,1.9,1.1,3.3,1.2,4.3V18h2v-5.5L19.4,4.4z
		 M24.8,14.7v-3.5c0-1.1-0.2-1.9-0.6-2.4c-0.5-0.7-1.2-1-2.1-1c-0.9,0-1.6,0.3-2.1,1c-0.4,0.5-0.6,1.3-0.6,2.4v3.5
		c0,1.1,0.2,1.9,0.6,2.4c0.5,0.7,1.2,1,2.1,1c0.9,0,1.6-0.3,2.1-1C24.6,16.5,24.8,15.7,24.8,14.7z M23,15c0,0.9-0.3,1.4-0.9,1.4
		c-0.6,0-0.9-0.5-0.9-1.4v-4.2c0-0.9,0.3-1.4,0.9-1.4c0.6,0,0.9,0.5,0.9,1.4V15z M31.5,17.9V7.8h-1.8v7.7c-0.4,0.6-0.8,0.9-1.2,0.9
		c-0.2,0-0.4-0.1-0.4-0.4c0-0.1,0-0.3,0-0.7V7.9h-1.8v8c0,0.7,0.1,1.2,0.2,1.5c0.2,0.5,0.6,0.8,1.2,0.8c0.7,0,1.4-0.4,2.1-1.2v1.1
		h1.7V17.9z"/>
	<path class="st1" d="M37.5,30.2c0,2.3,0,4.8-0.5,7.1c-0.4,1.6-1.7,2.8-3.2,2.9c-3.7,0.4-7.5,0.4-11.2,0.4c-3.7,0-7.5,0-11.2-0.4
		c-1.6-0.2-2.9-1.3-3.2-2.9c-0.5-2.3-0.5-4.7-0.5-7.1c0-2.3,0-4.8,0.5-7.1c0.4-1.6,1.7-2.8,3.2-2.9c3.7-0.4,7.5-0.4,11.2-0.4
		s7.5,0,11.2,0.4c1.6,0.2,2.9,1.3,3.2,2.9C37.5,25.4,37.5,27.8,37.5,30.2z"/>
	<path class="st0" d="M16.1,25.1v-1.9H9.8v1.9h2.1v11.5h2V25.1H16.1z M19.7,36.6v-1.1c-0.7,0.8-1.4,1.2-2.1,1.2
		c-0.6,0-1-0.2-1.2-0.7c-0.1-0.3-0.2-0.8-0.2-1.5v-7.9H18v7.3c0,0.4,0,0.6,0,0.7c0,0.3,0.2,0.4,0.4,0.4c0.4,0,0.7-0.3,1.1-0.8v-7.6
		h1.8v10L19.7,36.6L19.7,36.6z M26.6,33.8c0,0.9-0.3,1.3-0.8,1.3c-0.3,0-0.6-0.1-0.9-0.4v-6.1c0.3-0.3,0.6-0.4,0.9-0.4
		c0.5,0,0.8,0.5,0.8,1.4V33.8z M28.4,33.7v-4c0-0.9-0.1-1.6-0.2-2c-0.2-0.7-0.7-1.1-1.4-1.1s-1.3,0.4-1.9,1.1v-4.4h-1.8v13.4h1.8v-1
		c0.6,0.7,1.2,1.1,1.9,1.1s1.2-0.4,1.4-1.1C28.3,35.2,28.4,34.6,28.4,33.7z M33.4,30.5h-1.8v-0.9c0-0.9,0.3-1.4,0.9-1.4
		c0.6,0,0.9,0.5,0.9,1.4L33.4,30.5L33.4,30.5z M35.2,33.5v-0.3h-1.8c0,0.7,0,1.1,0,1.2c-0.1,0.5-0.4,0.7-0.8,0.7
		c-0.6,0-0.9-0.5-0.9-1.4V32h3.6v-2.1c0-1.1-0.2-1.8-0.6-2.4c-0.5-0.7-1.2-1-2.1-1c-0.9,0-1.6,0.3-2.2,1c-0.4,0.5-0.6,1.3-0.6,2.4
		v3.5c0,1.1,0.2,1.8,0.6,2.3c0.5,0.7,1.2,1,2.2,1c0.9,0,1.7-0.4,2.2-1.1c0.2-0.3,0.4-0.7,0.4-1.1C35.2,34.4,35.2,34,35.2,33.5z"/>
</g>
</svg>
