<?xml version="1.0" encoding="utf-8"?>
<!-- Generator: Adobe Illustrator 23.0.1, SVG Export Plug-In . SVG Version: 6.00 Build 0)  -->
<svg version="1.1" id="logo" xmlns="http://www.w3.org/2000/svg" xmlns:xlink="http://www.w3.org/1999/xlink" x="0px" y="0px"
	 viewBox="0 0 216 216.3" style="enable-background:new 0 0 216 216.3;" xml:space="preserve">
<style type="text/css">
	.st0{fill:#FFFFFF;stroke:#9ABD4B;stroke-width:4.4111;stroke-miterlimit:10;}
	.st1{fill:#5D7031;}
	.st2{fill:#FFFFFF;stroke:#FFFFFF;stroke-width:6;stroke-linejoin:round;stroke-miterlimit:10;}
	.st3{fill:#666565;}
	.st4{fill:none;stroke:#9ABD4B;stroke-width:4.4111;stroke-miterlimit:10;}
	.st5{fill:#D8AE58;}
	.st6{fill:#FFFFFF;}
	.st7{fill:#FFFFFF;stroke:#FFFFFF;stroke-width:6;stroke-miterlimit:10;}
	.st8{fill:none;}
	.st9{fill:#666665;}
	.st10{fill:none;stroke:#666665;stroke-width:2;stroke-linecap:round;stroke-linejoin:round;stroke-miterlimit:10;}
	.st11{fill:none;stroke:#666665;stroke-width:2;stroke-miterlimit:10;}
	.st12{fill:none;stroke:#666665;stroke-width:2.1;stroke-miterlimit:10;}
	.st13{fill:none;stroke:#D42027;stroke-width:2;stroke-linejoin:round;stroke-miterlimit:10;}
	.st14{fill:none;stroke:#D42027;stroke-linejoin:round;stroke-miterlimit:10;}
	.st15{fill:none;stroke:#D42027;stroke-width:2;stroke-linecap:round;stroke-linejoin:round;stroke-miterlimit:10;}
	.st16{fill:none;stroke:#D42027;stroke-miterlimit:10;}
</style>
<g id="XMLID_257_">
	<circle id="XMLID_23_" class="st0" cx="110.1" cy="100.3" r="76.5"/>
	<g id="XMLID_222_">
		<path id="XMLID_225_" class="st1" d="M85.9,85.4h2.2l-8.5-17.7l-8.5,17.7h2.2l-2.2,4.7h2.2l-2.2,4.7h7.4v4.1
			c0,0.6,0.5,1.1,1.1,1.1l0,0c0.6,0,1.1-0.5,1.1-1.1v-4.1h7.4l-2.2-4.7h2.2L85.9,85.4z"/>
		<path id="XMLID_224_" class="st1" d="M80.8,94.8h7.4l-2.2-4.7h2.2l-2.2-4.7h2.2l-8.5-17.7v32.2l0,0c0.6,0,1.1-0.5,1.1-1.1V94.8z"
			/>
	</g>
	<path id="XMLID_43_" class="st2" d="M163.8,117.7c0,0-10.3-1.2-14.2,7.6c0,0-1.5,6.1-5.5,8c0,0,12.6-3.5,16.7-6.3
		c0,0,4.6-5.2,6.3-6.5"/>
	<g id="XMLID_217_">
		<path id="XMLID_220_" class="st1" d="M172.3,81.2h3.3l-12.5-26.2l-12.5,26.2h3.3l-3.3,6.9h3.3l-3.3,6.9h10.9v6
			c0,0.9,0.7,1.6,1.6,1.6l0,0c0.9,0,1.6-0.7,1.6-1.6v-6h10.9l-3.3-6.9h3.3L172.3,81.2z"/>
		<path id="XMLID_219_" class="st1" d="M164.6,95h10.9l-3.3-6.9h3.3l-3.3-6.9h3.3l-12.5-26.2v47.5l0,0c0.9,0,1.6-0.7,1.6-1.6V95z"/>
	</g>
	<g id="XMLID_212_">
		<path id="XMLID_216_" class="st1" d="M145.2,83.2h1.9l-7.3-15.3l-7.3,15.3h1.9l-1.9,4h1.9l-1.9,4h6.4v3.5c0,0.5,0.4,0.9,0.9,0.9
			l0,0c0.5,0,0.9-0.4,0.9-0.9v-3.5h6.4l-1.9-4h1.9L145.2,83.2z"/>
		<path id="XMLID_215_" class="st1" d="M140.7,91.2h6.4l-1.9-4h1.9l-1.9-4h1.9l-7.3-15.3v27.8l0,0c0.5,0,0.9-0.4,0.9-0.9V91.2z"/>
	</g>
	<g id="XMLID_209_">
		<path id="XMLID_211_" class="st1" d="M62.8,82.1h2.8L55,60.5L44.3,82.1h2.8l-2.8,5.7h2.8l-2.8,5.7h9.4v4.9c0,0.7,0.6,1.3,1.3,1.3
			l0,0c0.7,0,1.3-0.6,1.3-1.3v-4.9h9.4l-2.8-5.7h2.8L62.8,82.1z"/>
		<path id="XMLID_210_" class="st1" d="M56.3,93.5h9.4l-2.8-5.7h2.8l-2.8-5.7h2.8L55,60.5v39.3l0,0c0.7,0,1.3-0.6,1.3-1.3V93.5z"/>
	</g>
	<path id="XMLID_206_" class="st3" d="M75.7,102.1"/>
	<circle id="XMLID_205_" class="st4" cx="110.1" cy="100.3" r="76.5"/>
	<g id="XMLID_134_">
		<path id="XMLID_135_" class="st3" d="M33,141.3l-0.9-1.9l-11.7,5.7l-0.9-1.8l11.7-5.7l-0.9-1.9l1.9-0.9l2.7,5.6L33,141.3z"/>
		<path id="XMLID_149_" class="st3" d="M38.5,146.5l-13.1,7.8l-1-1.7l6.1-3.7l-1.1-1.8l-6.1,3.7l-1-1.7l13.1-7.8l1,1.7l-5.1,3
			l1.1,1.8l5.1-3L38.5,146.5z"/>
		<path id="XMLID_153_" class="st3" d="M32.1,157.5l-1.2-1.6l-3.1,1.7l-1.1-1.6l13.7-7l1.2,1.7l-11,10.8l-1.2-1.7L32.1,157.5z
			 M33.7,156l4.1-3.7l0,0l-4.8,2.7L33.7,156z"/>
		<path id="XMLID_156_" class="st3" d="M48.8,159.5l-11.4,10l-1.3-1.5l7-6.2l-7.9,5.2l-0.9-1.1l6.2-7.1l0,0l-7,6.2l-1.3-1.5l11.4-10
			l1.8,2.1l-6,7l0,0l7.7-5L48.8,159.5z"/>
		<path id="XMLID_180_" class="st3" d="M49.7,163.3l-2.6,2.7l1.5,1.4l-1.5,1.6l-1.5-1.4l-3.4,3.6l2.3,2.1l-1.5,1.6l-3.7-3.5l10.5-11
			l3.6,3.4l-1.5,1.6L49.7,163.3z"/>
		<path id="XMLID_182_" class="st3" d="M54.4,170.2l0.4-0.5c0.7-0.8,0.7-1.5,0.3-1.9c-0.4-0.3-1-0.2-1.5,0.3c-0.4,0.5-0.7,1-0.7,1.8
			l-0.4,3.7c-0.2,1.5-0.3,2.4-1.4,3.8c-1.4,1.7-3.2,1.8-4.5,0.7c-1.3-1-1.5-2.8-0.1-4.5l1-1.2l1.6,1.3l-0.9,1.1
			c-0.6,0.7-0.6,1.3-0.2,1.7c0.4,0.3,1,0.2,1.6-0.5c0.5-0.6,0.7-1.2,0.8-2l0.2-2.9c0.2-2,0.2-2.6,1.5-4.3c1.3-1.6,3.1-1.8,4.4-0.7
			c1.3,1.1,1.4,2.9,0.1,4.5l-0.7,0.8L54.4,170.2z"/>
		<path id="XMLID_199_" class="st3" d="M57.8,185.9l1.6-6.2c-0.2-0.1-0.5-0.3-0.6-0.3l-3.3,5.2l-1.7-1.1l8.1-12.8l2.9,1.8
			c1.6,1,1.4,3.2,0.1,5.2c-1.2,1.9-2.6,2.7-3.8,2.8l-1.7,6.6L57.8,185.9z M60.1,177.4l0.5,0.3c1.1,0.7,1.5,0.7,2.7-1.2
			c0.7-1,1-1.9,0.3-2.4l-1.1-0.7L60.1,177.4z"/>
		<path id="XMLID_203_" class="st3" d="M63,188.9l-1.8-1l7.3-13.3l1.8,1L63,188.9z"/>
		<path id="XMLID_218_" class="st3" d="M69,191.9l-2-0.9l4.1-14.8l2,0.9l-3.4,10.8l0,0l6.1-9.6l2,0.9L69,191.9z"/>
		<path id="XMLID_227_" class="st3" d="M79.8,182.2l-1.3,3.5l1.9,0.7l-0.7,2l-1.9-0.7l-1.7,4.6l2.9,1.1l-0.7,2l-4.8-1.8l5.2-14.3
			l4.6,1.7l-0.7,2L79.8,182.2z"/>
		<path id="XMLID_229_" class="st3" d="M84.8,197.4l-0.2-6.4c-0.3-0.1-0.5-0.2-0.6-0.2l-1.6,5.9l-1.9-0.5l4-14.6l3.3,0.9
			c1.9,0.5,2.3,2.6,1.6,5c-0.6,2.2-1.7,3.4-2.8,3.8l0.3,6.8L84.8,197.4z M84.5,188.6l0.6,0.2c1.3,0.4,1.7,0.2,2.3-1.9
			c0.3-1.2,0.4-2.1-0.4-2.4l-1.3-0.3L84.5,188.6z"/>
		<path id="XMLID_232_" class="st3" d="M96.7,196.2l-1.9-0.3l-0.9,3.4l-1.9-0.3l4.5-14.7l2,0.3l0.1,15.4l-2-0.3L96.7,196.2z
			 M96.7,194l0.2-5.5l0,0l-1.4,5.3L96.7,194z"/>
		<path id="XMLID_235_" class="st3" d="M107.9,185.5l-1,15.2l-2-0.1l-1.4-8.8l0,0l-0.6,8.7l-2-0.1l1-15.2l2.1,0.1l1.3,8.5l0,0
			l0.6-8.4L107.9,185.5z"/>
		<path id="XMLID_237_" class="st3" d="M113.2,189.8l0-1.2c0-0.5-0.4-1.2-1-1.2c-0.7,0-1,0.8-1,1.3l0.2,8.8c0,0.5,0.3,1.2,1.1,1.2
			c0.8,0,1.1-0.7,1.1-2l-0.1-2.3l-1.1,0l0-2.2l3-0.1l0.1,4.7c0,2.1-0.8,3.9-2.9,4c-2.3,0-3.1-1.8-3.1-3.3l-0.2-8.8
			c0-1.5,0.7-3.4,3-3.5c2.1,0,3,1.8,3.1,3.3l0,1.2L113.2,189.8z"/>
		<path id="XMLID_239_" class="st3" d="M122.3,197.8l0.2,2.2l-4.7,0.5l-1.5-15.1l2-0.2l1.3,13L122.3,197.8z"/>
		<path id="XMLID_241_" class="st3" d="M124.4,186.5l0.6,3.7l2-0.3l0.4,2.1l-2,0.3l0.8,4.9l3.1-0.5l0.4,2.1l-5.1,0.9l-2.5-15
			l4.8-0.8l0.4,2.1L124.4,186.5z"/>
		<path id="XMLID_243_" class="st3" d="M136.2,197.2l-3.4-5.5c-0.3,0.1-0.6,0.1-0.6,0.2l1.5,5.9l-2,0.5l-3.7-14.7l3.3-0.8
			c1.9-0.5,3.3,1.1,3.9,3.5c0.6,2.2,0.2,3.8-0.6,4.6l3.7,5.8L136.2,197.2z M131.7,189.7l0.6-0.2c1.3-0.3,1.6-0.6,1-2.8
			c-0.3-1.2-0.7-2-1.5-1.9l-1.3,0.3L131.7,189.7z"/>
		<path id="XMLID_246_" class="st3" d="M140.1,184.5l-0.2-0.6c-0.3-1-0.9-1.4-1.4-1.3c-0.5,0.2-0.7,0.8-0.5,1.4
			c0.2,0.6,0.5,1.1,1.1,1.6l2.9,2.3c1.2,0.9,1.9,1.5,2.5,3.2c0.7,2.1-0.2,3.7-1.7,4.2c-1.6,0.5-3.2-0.2-3.9-2.3l-0.5-1.5l1.9-0.7
			l0.5,1.3c0.3,0.9,0.8,1.2,1.3,1c0.5-0.2,0.7-0.8,0.4-1.6c-0.3-0.8-0.7-1.3-1.3-1.7l-2.4-1.6c-1.6-1.3-2.2-1.6-2.8-3.5
			c-0.7-1.9,0.1-3.6,1.7-4.2c1.6-0.6,3.2,0.3,3.9,2.2l0.3,1L140.1,184.5z"/>
		<path id="XMLID_248_" class="st3" d="M153.1,187l-1.8,0.9l1.2,3.4l-1.7,0.8l-4.5-14.7l1.8-0.9l8.7,12.6L155,190L153.1,187z
			 M151.9,185.2l-2.9-4.6l0,0l1.8,5.2L151.9,185.2z"/>
		<path id="XMLID_251_" class="st3" d="M156.2,176.9l-0.3-0.5c-0.5-0.9-1.2-1.2-1.6-1c-0.4,0.3-0.5,0.9-0.2,1.5
			c0.3,0.6,0.7,0.9,1.4,1.3l3.3,1.6c1.3,0.7,2.2,1.1,3.1,2.7c1.1,1.9,0.5,3.6-0.9,4.5c-1.4,0.8-3.2,0.4-4.3-1.4l-0.8-1.4l1.8-1
			l0.7,1.2c0.5,0.8,1,1,1.5,0.7c0.4-0.3,0.5-0.9,0.1-1.7c-0.4-0.7-0.9-1.1-1.6-1.4l-2.6-1.1c-1.8-0.9-2.4-1.1-3.5-2.9
			c-1-1.8-0.7-3.5,0.8-4.4c1.5-0.9,3.2-0.3,4.3,1.4l0.5,0.9L156.2,176.9z"/>
		<path id="XMLID_253_" class="st3" d="M162.2,173l-0.4-0.5c-0.6-0.9-1.3-1.1-1.7-0.8c-0.4,0.3-0.5,0.9-0.1,1.5
			c0.4,0.5,0.7,0.9,1.5,1.2l3.5,1.4c1.4,0.5,2.3,0.9,3.3,2.4c1.3,1.8,0.8,3.6-0.5,4.5c-1.3,0.9-3.1,0.7-4.4-1.1l-0.9-1.3l1.7-1.2
			l0.8,1.2c0.5,0.8,1.1,0.9,1.5,0.6c0.4-0.3,0.5-0.9-0.1-1.7c-0.5-0.7-1-1-1.7-1.3l-2.7-0.9c-1.9-0.8-2.5-0.9-3.7-2.6
			c-1.2-1.7-0.9-3.5,0.5-4.5c1.4-1,3.2-0.6,4.4,1.1l0.6,0.9L162.2,173z"/>
		<path id="XMLID_255_" class="st3" d="M168.9,166.3l5.6,6.7c1,1.2,1.5,3.2-0.1,4.5c-1.7,1.4-3.5,0.5-4.5-0.7l-5.6-6.7
			c-1-1.2-1.6-3.1,0.2-4.5C166.1,164.2,167.9,165.1,168.9,166.3z M167.4,167.6c-0.3-0.3-1.1-0.8-1.5-0.4c-0.5,0.5-0.2,1.3,0,1.6
			l5.6,6.7c0.3,0.4,1.1,0.8,1.6,0.4c0.4-0.4,0.2-1.2-0.1-1.6L167.4,167.6z"/>
		<path id="XMLID_259_" class="st3" d="M173.7,163.4l-0.8-0.9c-0.3-0.3-1.1-0.6-1.5-0.2c-0.5,0.5-0.2,1.3,0.1,1.6l6.2,6.2
			c0.3,0.3,1.1,0.7,1.6,0.2c0.4-0.4,0.1-1.2-0.2-1.5l-0.8-0.9l1.5-1.4l0.8,0.9c1.1,1.1,1.7,3.1,0.3,4.5c-1.6,1.6-3.5,0.8-4.6-0.2
			l-6.2-6.3c-1.1-1.1-1.8-3-0.2-4.6c1.5-1.4,3.4-0.8,4.5,0.3l0.8,0.9L173.7,163.4z"/>
		<path id="XMLID_261_" class="st3" d="M185.5,166.5l-1.4,1.5l-11.3-10.1l1.4-1.5L185.5,166.5z"/>
		<path id="XMLID_263_" class="st3" d="M186.7,159.4l-1.2,1.5l2.5,2.5l-1.2,1.5l-10.5-11.2l1.3-1.6l13.4,7.6l-1.3,1.6L186.7,159.4z
			 M184.8,158.3l-4.7-2.9l0,0l3.9,3.9L184.8,158.3z"/>
		<path id="XMLID_266_" class="st3" d="M183.9,147.1l-1.2,1.7l10.7,7.4l-1.2,1.7l-10.7-7.4l-1.2,1.7l-1.8-1.2l3.5-5.1L183.9,147.1z"
			/>
		<path id="XMLID_268_" class="st3" d="M196.7,151l-1,1.7l-13-7.8l1-1.7L196.7,151z"/>
		<path id="XMLID_270_" class="st3" d="M190,138.2l7.8,4c1.4,0.7,2.6,2.4,1.7,4.2c-1,2-3.1,1.8-4.4,1.1l-7.8-4
			c-1.4-0.7-2.6-2.3-1.6-4.3C186.5,137.5,188.6,137.5,190,138.2z M189.1,140c-0.4-0.2-1.3-0.3-1.6,0.2c-0.3,0.6,0.3,1.3,0.6,1.5
			l7.8,4c0.4,0.2,1.3,0.3,1.6-0.3c0.3-0.5-0.3-1.2-0.7-1.4L189.1,140z"/>
		<path id="XMLID_273_" class="st3" d="M190,130l14,5.8l-0.8,1.9l-8.8-1.5l0,0l8,3.3l-0.8,1.9l-14-5.8l0.8-2l8.5,1.5l0,0l-7.8-3.2
			L190,130z"/>
	</g>
	<g id="XMLID_56_">
		<g id="XMLID_491_">
			<path id="XMLID_515_" class="st3" d="M80.6,155.5h-1.5l-0.3,2.1h-1.5l1.8-8.8h1.6l1.8,8.8H81L80.6,155.5z M80.4,154.2l-0.5-3.2h0
				l-0.5,3.2H80.4z"/>
			<path id="XMLID_513_" class="st3" d="M89,148.7v8.8h-1.6l-1.6-5.1h0v5.1h-1.6v-8.8h1.7l1.5,4.9h0v-4.9H89z"/>
			<path id="XMLID_511_" class="st3" d="M93.9,151.3v-0.7c0-0.3-0.3-0.7-0.7-0.7c-0.6,0-0.8,0.5-0.8,0.7v5.1c0,0.3,0.2,0.7,0.8,0.7
				c0.6,0,0.9-0.4,0.9-1.1v-1.3h-0.9v-1.3h2.3v2.7c0,1.2-0.7,2.3-2.3,2.3c-1.8,0-2.4-1.1-2.4-2v-5.1c0-0.9,0.6-2,2.4-2
				c1.6,0,2.3,1.1,2.3,2v0.7H93.9z"/>
			<path id="XMLID_509_" class="st3" d="M101,156.3v1.3h-3.6v-8.8h1.6v7.6H101z"/>
			<path id="XMLID_507_" class="st3" d="M104.3,150v2.2h1.6v1.3h-1.6v2.9h2.4v1.3h-4v-8.8h3.8v1.3H104.3z"/>
			<path id="XMLID_504_" class="st3" d="M112,157.6l-1.5-3.6c-0.2,0-0.4,0-0.5,0v3.6h-1.6v-8.8h2.6c1.5,0,2.2,1.1,2.2,2.5
				c0,1.3-0.6,2.2-1.3,2.5l1.7,3.8H112z M110,152.7h0.5c1,0,1.3-0.1,1.3-1.4c0-0.7-0.2-1.3-0.8-1.3h-1V152.7z"/>
			<path id="XMLID_502_" class="st3" d="M118,151.2v-0.4c0-0.6-0.3-1-0.7-1c-0.4,0-0.7,0.3-0.7,0.7c0,0.4,0.1,0.7,0.4,1.1l1.6,1.8
				c0.6,0.7,1,1.2,1,2.2c0,1.3-1.1,2-2.3,2c-1.3,0-2.3-0.7-2.3-2v-0.9h1.6v0.8c0,0.5,0.3,0.8,0.7,0.8c0.4,0,0.7-0.3,0.7-0.8
				c0-0.5-0.2-0.8-0.5-1.2l-1.3-1.3c-0.8-1-1.2-1.3-1.2-2.5c0-1.2,1-2,2.3-2c1.3,0,2.3,0.8,2.3,2v0.6H118z"/>
			<path id="XMLID_500_" class="st3" d="M121.4,156h1.6v1.6h-1.6V156z"/>
			<path id="XMLID_497_" class="st3" d="M129.5,150.6v5.1c0,0.9-0.7,2-2.3,2c-1.7,0-2.4-1.1-2.4-2v-5.1c0-0.9,0.6-2,2.4-2
				C128.7,148.6,129.5,149.7,129.5,150.6z M127.9,150.6c0-0.3-0.3-0.7-0.7-0.7c-0.6,0-0.8,0.5-0.8,0.7v5.1c0,0.3,0.2,0.8,0.8,0.8
				c0.5,0,0.7-0.5,0.7-0.8V150.6z"/>
			<path id="XMLID_494_" class="st3" d="M134.9,157.6l-1.5-3.6c-0.2,0-0.4,0-0.5,0v3.6h-1.6v-8.8h2.6c1.5,0,2.2,1.1,2.2,2.5
				c0,1.3-0.6,2.2-1.3,2.5l1.7,3.8H134.9z M132.9,152.7h0.5c1,0,1.3-0.1,1.3-1.4c0-0.7-0.2-1.3-0.8-1.3h-1V152.7z"/>
			<path id="XMLID_492_" class="st3" d="M141,151.3v-0.7c0-0.3-0.3-0.7-0.7-0.7c-0.6,0-0.8,0.5-0.8,0.7v5.1c0,0.3,0.2,0.7,0.8,0.7
				c0.6,0,0.9-0.4,0.9-1.1v-1.3h-0.9v-1.3h2.3v2.7c0,1.2-0.7,2.3-2.3,2.3c-1.8,0-2.4-1.1-2.4-2v-5.1c0-0.9,0.6-2,2.4-2
				c1.6,0,2.3,1.1,2.3,2v0.7H141z"/>
		</g>
	</g>
	<g id="XMLID_1_">
		<g id="XMLID_427_">
			<path id="XMLID_446_" class="st3" d="M86.2,52.8v2.4H88v1.4h-1.8v3.2h2.7v1.4h-4.4v-9.8h4.2v1.4H86.2z"/>
			<path id="XMLID_444_" class="st3" d="M94,54.2v-0.4c0-0.7-0.4-1.1-0.8-1.1c-0.4,0-0.8,0.3-0.8,0.8c0,0.4,0.1,0.7,0.5,1.2l1.8,2
				c0.7,0.8,1.1,1.3,1.1,2.5c0,1.4-1.2,2.2-2.6,2.2c-1.4,0-2.5-0.8-2.5-2.2v-1h1.8v0.9c0,0.6,0.3,0.9,0.8,0.9c0.4,0,0.8-0.3,0.8-0.9
				c0-0.5-0.2-0.9-0.6-1.3L92,56.2c-0.9-1.1-1.3-1.4-1.3-2.7c0-1.3,1.1-2.2,2.6-2.2c1.5,0,2.5,0.9,2.5,2.2v0.7H94z"/>
			<path id="XMLID_442_" class="st3" d="M102.9,52.8h-1.8v8.4h-1.8v-8.4h-1.8v-1.4h5.4V52.8z"/>
			<path id="XMLID_440_" class="st3" d="M104,59.5h1.8v1.8H104V59.5z"/>
			<path id="XMLID_438_" class="st3" d="M111.7,51.4h1.8v9.8h-1.8v-8.4h-0.8v-1L111.7,51.4z"/>
			<path id="XMLID_435_" class="st3" d="M115.5,55.3c0-0.1,0-1.2,0-1.4c0-1.5,1-2.6,2.8-2.6c1.8,0,2.6,1.2,2.6,2.2c0,0,0,4.7,0,4.9
				c0,1.6-1.1,2.9-2.7,2.9c-1.7,0-2.4-1.2-2.4-2.2v-0.8h1.7v0.8c0,0.4,0.3,0.8,0.8,0.8c0.7,0,0.9-0.7,0.9-1.5v-1.6
				c-0.2,0.3-0.6,0.5-1.2,0.5C116.3,57.4,115.5,56.4,115.5,55.3z M117.3,55.3c0,0.5,0.4,0.8,0.9,0.8c0.6,0,0.9-0.3,0.9-0.5v-2
				c0-0.3-0.3-0.8-0.8-0.8c-0.7,0-1,0.4-1,1.2C117.3,54,117.3,55.1,117.3,55.3z"/>
			<path id="XMLID_431_" class="st3" d="M128.5,58.4c0,1.6-1.1,2.9-2.8,2.9c-1.7,0-2.9-1.3-2.9-2.9c0-1.4,0.7-2.1,1.6-2.5
				c-0.6-0.3-1.3-1.2-1.3-2.2c0-1.5,0.9-2.5,2.5-2.5c1.6,0,2.5,0.9,2.5,2.5c0,1-0.6,1.9-1.3,2.2C127.7,56.3,128.5,57.1,128.5,58.4z
				 M126.7,58.4c0-0.9-0.2-1.6-1-1.8c-0.8,0.2-1.1,0.8-1.1,1.8c0,1,0.4,1.5,1.2,1.5C126.4,60,126.7,59.2,126.7,58.4z M124.8,53.9
				c0,0.5,0.2,1,0.9,1.2c0.6-0.2,0.8-0.7,0.8-1.2c0-0.7-0.3-1.2-0.8-1.2S124.8,53.2,124.8,53.9z"/>
			<path id="XMLID_428_" class="st3" d="M135.8,57.4c0,0.1,0,1.2,0,1.4c0,1.5-1,2.6-2.8,2.6c-1.8,0-2.6-1.2-2.6-2.2c0,0,0-4.7,0-4.9
				c0-1.6,1-2.9,2.6-2.9c1.7,0,2.5,1.2,2.5,2.2v0.7h-1.7v-0.7c0-0.4-0.3-0.8-0.8-0.8c-0.7,0-0.9,0.8-0.9,1.5v1.5
				c0.2-0.3,0.6-0.5,1.2-0.5C135,55.3,135.8,56.3,135.8,57.4z M134,57.4c0-0.5-0.4-0.8-0.9-0.8c-0.5,0-0.9,0.3-0.9,0.5v2
				c0,0.3,0.3,0.8,0.8,0.8c0.7,0,1-0.4,1-1.2C134,58.7,134,57.6,134,57.4z"/>
		</g>
	</g>
	<g id="XMLID_194_">
		<circle id="XMLID_197_" class="st5" cx="110.2" cy="35.7" r="3.9"/>
		
			<ellipse id="XMLID_195_" transform="matrix(0.7714 -0.6364 0.6364 0.7714 3.5168 76.6799)" class="st6" cx="108.5" cy="33.4" rx="0.8" ry="0.5"/>
	</g>
	<g id="XMLID_191_">
		<circle id="XMLID_193_" class="st5" cx="88.1" cy="40.9" r="3.9"/>
		
			<ellipse id="XMLID_192_" transform="matrix(0.7714 -0.6364 0.6364 0.7714 -4.8522 63.7617)" class="st6" cx="86.3" cy="38.6" rx="0.8" ry="0.5"/>
	</g>
	<g id="XMLID_188_">
		<circle id="XMLID_190_" class="st5" cx="131.6" cy="40.9" r="3.9"/>
		
			<ellipse id="XMLID_189_" transform="matrix(0.7714 -0.6364 0.6364 0.7714 5.1081 91.4861)" class="st6" cx="129.9" cy="38.6" rx="0.8" ry="0.5"/>
	</g>
	<ellipse id="XMLID_187_" class="st6" cx="88.1" cy="42.2" rx="2" ry="1"/>
	<ellipse id="XMLID_186_" class="st6" cx="110.2" cy="37" rx="2" ry="1"/>
	<ellipse id="XMLID_185_" class="st6" cx="131.6" cy="42.2" rx="2" ry="1"/>
	<path id="XMLID_40_" class="st7" d="M122.4,91.6c0,0-2.8-1.5-4.3-1.6c0,0-11.1-10.6-13.7-12c0,0-6.7,11-9.7,11.9c0,0-0.8,1,2.7,1.3
		c0,0,3.3,0,3.6,0.4c0,0,1.2,0.4,1.1,1.1"/>
	<path id="XMLID_37_" class="st7" d="M74.8,94.1c0,0-5-3.1-12.8-3.5c0,0-2.3,0.5-4.2,4.3c0,0,0,0.7,1.2,1.3"/>
	<path id="XMLID_11_" class="st7" d="M54.5,112.2C53,112,41.3,117,41.3,117c-23.6,14.8-32.8,12.6-32.8,12.6c0-5,8.9-19.2,8.9-19.2
		c4.7-5.8,1.9-9.6,1.9-9.6c-10.5-21.5-9.2-21.7-9.2-21.7c5.8-0.1,27.9,10.1,27.9,10.1C42,91.4,48.6,94,48.6,94l5.1,2
		c1.5,0.8,13.2,0.5,13.2,0.5c23.6-6.8,94.1-6.3,94.1-6.3l7.8,0.6c0,0,30.4,3.7,35.1,11.9c0,0-7.2,3.8-11.5,7.8c0,0,6.1-0.7,7.5-1
		l5.3-0.4c0,0,0.4,0.4-7.7,6.3c0,0-5.5,2.8-12.5,4.8l-7.3,1.6c-6,1.5-11.7,4.4-16.8,5.4c0,0-14.7,3-39,1.3
		c-24.3-1.7-16.6-2.7-35.7-7.3C67,116.3,66.5,114.1,54.5,112.2z"/>
	<path id="XMLID_12_" class="st7" d="M121.8,122c0,0-3.6,15.2-10.3,17.4c0,0-3-3-5.1-8.4c-0.7-1.9-1.3-4-1.7-6.4
		c0,0,0.3-2.4,2.3-2.6c0,0,3.2,1.1,4.7,0"/>
	<path id="XMLID_5_" class="st7" d="M82,118.6c0,0-4,6.3-9.8,10.1c0,0-2.8,3-4.1,2.7c-0.7-0.2-0.3-2.2-0.1-4.9c0,0-1.6-5.2-5.4-8.7
		c0,0-1.8-1.5,0-2.3c0,0,0.4,0.1,5-1"/>
	<polygon id="XMLID_196_" class="st8" points="101.4,151.2 109,151.2 109,151.2 101.4,151.2 	"/>
	<g id="XMLID_294_">
		<path id="XMLID_315_" class="st8" d="M44.3,116.6"/>
	</g>
	<g id="XMLID_114_">
		<path id="XMLID_312_" class="st8" d="M44.3,91.2"/>
	</g>
	<g id="XMLID_173_">
		<polygon id="XMLID_176_" class="st9" points="13.5,86.1 34.9,94.3 12.9,88 		"/>
	</g>
	<g id="XMLID_170_">
		<polygon id="XMLID_316_" class="st9" points="17.8,96.3 29.2,98.6 17.5,98.2 		"/>
	</g>
	<g id="XMLID_167_">
		<polygon id="XMLID_174_" class="st9" points="18.9,106.8 29.2,105.5 19.4,108.8 		"/>
	</g>
	<g id="XMLID_164_">
		<polygon id="XMLID_171_" class="st9" points="15.7,112.5 32.9,109.6 16.2,114.4 		"/>
	</g>
	<g id="XMLID_161_">
		<polygon id="XMLID_168_" class="st9" points="11.7,118.8 33.9,112.4 12.4,120.7 		"/>
	</g>
	<g id="XMLID_158_">
		<polygon id="XMLID_165_" class="st9" points="8.7,124.3 33.6,116.6 9.4,126.2 		"/>
	</g>
	<path id="XMLID_157_" class="st9" d="M191.4,100.5c0-0.4-0.2-0.8-0.6-0.8c-0.1,0-0.5-0.2-0.7-0.2c-0.3-0.1-0.7-0.1-1,0
		c-0.2,0-1,0.3-1.1,0.4c-0.6,0.3-0.6,0.4-1,1c-0.2,0.4-0.1,1.2,0.3,1.4c0.9,0.4,1.4,1.1,2.4,0.9c0.3,0,0.7-0.1,0.9-0.4
		c0.3-0.3,0.4-0.6,0.5-0.9c0.1-0.3,0.1-0.3,0.2-0.6"/>
	<path id="XMLID_22_" class="st10" d="M48.7,113.4c0,0,4.6-6.3,44.9,9.8c0,0-0.8-0.1,11.1,3.3"/>
	<path id="XMLID_9_" class="st11" d="M119.8,128.2c5.6,0.2,16.6,0.6,24.3,0.5c0,0,1.6,0,4.2-0.1"/>
	<g id="XMLID_20_">
		<path id="XMLID_27_" class="st9" d="M163.8,117.8c-1.4-0.1-2.9,0.1-4.2,0.3c-0.3,0.1-0.7,0.2-1,0.2c-0.3,0.1-0.7,0.2-1,0.3
			c-0.3,0.1-0.7,0.2-1,0.4c-0.3,0.1-0.6,0.3-0.9,0.5c-0.3,0.2-0.6,0.3-0.9,0.5l-0.9,0.6c-0.3,0.2-0.5,0.5-0.8,0.7
			c-0.3,0.2-0.5,0.5-0.7,0.7c-0.2,0.3-0.5,0.5-0.7,0.8l-0.6,0.9c-0.4,0.6-0.6,1.2-1,1.8l0-0.1c-0.2,0.9-0.5,1.7-0.8,2.5
			c-0.3,0.8-0.7,1.6-1.1,2.3c-0.4,0.7-1,1.5-1.6,2.1c-0.3,0.3-0.6,0.6-1,0.9c-0.2,0.1-0.4,0.3-0.6,0.4l-0.6,0.3l-0.6-1.5
			c2.8-0.9,5.6-1.9,8.4-2.9c1.4-0.5,2.8-1,4.1-1.6c0.7-0.3,1.3-0.5,2-0.8c0.6-0.3,1.3-0.6,1.9-1l-0.1,0.1c1.1-1.1,2.2-2.2,3.3-3.2
			c0.6-0.5,1.1-1,1.7-1.5c0.6-0.5,1.2-1,1.9-1.4c0,0,0.1,0,0.1,0c0,0,0,0.1,0,0.1c-1.1,1.1-2,2.3-2.9,3.5l-2.8,3.5
			c0,0-0.1,0.1-0.1,0.1l0,0c-0.3,0.2-0.7,0.5-1,0.7l-1,0.6c-0.7,0.4-1.4,0.7-2.1,1c-0.7,0.3-1.4,0.6-2.1,0.9
			c-0.7,0.3-1.4,0.5-2.1,0.8c-1.4,0.5-2.9,0.9-4.3,1.3c-1.4,0.4-2.9,0.8-4.3,1.2c-0.4,0.1-0.9-0.2-1-0.6c-0.1-0.4,0.1-0.7,0.4-0.9
			l0,0l0.5-0.2c0.2-0.1,0.3-0.2,0.5-0.3c0.3-0.2,0.6-0.5,0.9-0.7c0.5-0.5,1-1.1,1.5-1.8c0.4-0.7,0.8-1.4,1.1-2.1
			c0.3-0.7,0.6-1.5,0.8-2.2l0-0.1l0,0c0.4-0.6,0.7-1.3,1.1-1.9l0.7-0.9c0.2-0.3,0.5-0.5,0.8-0.8c0.3-0.3,0.5-0.5,0.8-0.8
			c0.3-0.2,0.6-0.5,0.9-0.7l0.9-0.6c0.3-0.2,0.7-0.3,1-0.5c0.3-0.2,0.7-0.3,1-0.4c0.3-0.1,0.7-0.3,1-0.3c0.4-0.1,0.7-0.2,1.1-0.3
			c0.4-0.1,0.7-0.2,1.1-0.2c1.4-0.2,2.9-0.3,4.3-0.1c0.1,0,0.1,0.1,0.1,0.1C163.9,117.8,163.9,117.8,163.8,117.8z"/>
	</g>
	<g id="XMLID_18_">
		<path id="XMLID_26_" class="st9" d="M122.4,91.6c-0.7-0.3-1.4-0.5-2.2-0.7c-0.4-0.1-0.7-0.2-1.1-0.3c-0.4-0.1-0.7-0.1-1-0.1
			l-0.1,0l-0.1-0.1c-2.4-1.9-4.7-3.9-7-5.9c-1.2-1-2.3-2-3.5-2.9c-0.6-0.5-1.2-1-1.7-1.4c-0.3-0.2-0.6-0.5-0.9-0.7
			c-0.3-0.2-0.6-0.4-0.8-0.6l1.3-0.4c-0.7,1.1-1.4,2.2-2.1,3.3c-0.7,1.1-1.5,2.1-2.3,3.2c-0.8,1-1.6,2.1-2.5,3
			c-0.5,0.5-0.9,1-1.5,1.4c-0.3,0.2-0.5,0.4-0.8,0.6c-0.3,0.2-0.6,0.4-1.1,0.5l0.3-0.2c0.1-0.1,0-0.1,0.1-0.2c0-0.1,0-0.1,0-0.1
			c0,0,0,0,0,0c0,0,0,0,0.1,0.1c0.1,0,0.1,0.1,0.2,0.1c0.1,0,0.2,0.1,0.3,0.1c0.5,0.2,1,0.2,1.6,0.3l0,0c0.6,0,1.2,0.1,1.9,0.2
			c0.3,0,0.6,0.1,0.9,0.2c0.2,0,0.3,0.1,0.5,0.1c0.1,0,0.2,0.1,0.2,0.1c0.1,0,0.2,0.1,0.3,0.2l-0.1-0.1c0.3,0.1,0.5,0.3,0.7,0.5
			c0.2,0.2,0.4,0.5,0.3,0.8c0-0.3-0.2-0.5-0.4-0.6c-0.2-0.1-0.5-0.2-0.7-0.3l-0.1-0.1c0,0-0.1,0-0.1,0c-0.1,0-0.1,0-0.2,0
			c-0.1,0-0.3,0-0.4,0c-0.3,0-0.6,0-0.9,0c-0.6,0-1.2,0-1.8,0.1l0,0c-0.6,0-1.2-0.1-1.8-0.2c-0.2,0-0.3-0.1-0.5-0.1
			c-0.2,0-0.3-0.1-0.5-0.2c-0.2-0.1-0.4-0.3-0.5-0.6c-0.1-0.2-0.1-0.4-0.1-0.6c0-0.2,0.1-0.3,0.2-0.5l0.1-0.1l0.2-0.1
			c0.4-0.2,0.9-0.5,1.3-1c0.4-0.4,0.8-0.9,1.2-1.4c0.8-1,1.6-2,2.3-3c0.7-1,1.5-2.1,2.2-3.2c0.7-1.1,1.4-2.2,2.1-3.2l0.5-0.8
			l0.8,0.5c0.4,0.2,0.7,0.5,1,0.7c0.3,0.2,0.6,0.5,0.9,0.7c0.6,0.5,1.2,1,1.8,1.5c1.1,1,2.3,2.1,3.4,3.1c2.2,2.1,4.4,4.3,6.4,6.5
			l-0.3-0.1c0.4,0,0.8,0.2,1.2,0.3c0.4,0.1,0.7,0.3,1.1,0.5C121.1,90.8,121.7,91.2,122.4,91.6z"/>
	</g>
	<g id="XMLID_146_">
		<path id="XMLID_148_" class="st9" d="M116.9,91.6L105.1,81l12.5,9.9c0.2,0.2,0.3,0.5,0.1,0.7C117.5,91.8,117.2,91.8,116.9,91.6
			C117,91.6,116.9,91.6,116.9,91.6z"/>
	</g>
	<g id="XMLID_143_">
		<path id="XMLID_145_" class="st9" d="M112.1,91.6l-7.9-7.7l8.5,6.9c0.2,0.2,0.2,0.5,0.1,0.7C112.7,91.7,112.4,91.8,112.1,91.6
			C112.2,91.6,112.1,91.6,112.1,91.6z"/>
	</g>
	<g id="XMLID_140_">
		<path id="XMLID_142_" class="st9" d="M107.8,91.2l-4.9-4.7l5.5,3.9c0.2,0.2,0.3,0.5,0.1,0.7C108.4,91.4,108.1,91.4,107.8,91.2
			C107.9,91.2,107.9,91.2,107.8,91.2z"/>
	</g>
	<g id="XMLID_137_">
		<path id="XMLID_139_" class="st9" d="M104.2,91.8l-3.9-3.7l4.5,2.9c0.2,0.1,0.3,0.5,0.2,0.7S104.5,92,104.2,91.8
			C104.2,91.8,104.2,91.8,104.2,91.8z"/>
	</g>
	<g id="XMLID_16_">
		<path id="XMLID_25_" class="st9" d="M74.8,94.1c-1.1-0.3-2.2-0.6-3.2-0.9c-0.5-0.1-1.1-0.3-1.6-0.4c-0.5-0.1-1.1-0.2-1.6-0.3
			c-0.5-0.1-1.1-0.2-1.6-0.3c-0.5-0.1-1.1-0.2-1.6-0.2c-0.5-0.1-1.1-0.1-1.6-0.2c-0.5-0.1-1.1-0.1-1.6-0.2l0.3,0c0,0-0.1,0-0.2,0.1
			c-0.1,0-0.2,0.1-0.3,0.1c-0.2,0.1-0.4,0.2-0.6,0.3c-0.4,0.2-0.7,0.5-1.1,0.9c-0.3,0.3-0.7,0.7-1,1.1c-0.3,0.4-0.6,0.8-0.9,1.2
			l0-0.2c0-0.1,0,0,0,0c0,0,0,0,0,0.1c0,0,0,0.1,0,0.2c0,0.1,0.1,0.2,0.1,0.4c0.1,0.2,0.3,0.5,0.5,0.7c-0.3-0.1-0.6-0.2-0.9-0.4
			c-0.2-0.1-0.3-0.2-0.4-0.4c-0.1-0.1-0.1-0.2-0.2-0.2c0,0-0.1-0.1-0.1-0.2c0-0.1,0-0.1-0.1-0.2l0-0.1l0.1-0.2
			c0.2-0.5,0.4-1,0.6-1.5c0.3-0.5,0.5-1,0.9-1.4c0.3-0.5,0.7-0.9,1.2-1.2c0.2-0.2,0.5-0.4,0.7-0.5c0.1-0.1,0.3-0.2,0.4-0.2
			c0.2-0.1,0.3-0.1,0.5-0.2l0.1,0l0.2,0c1.2,0,2.3,0.1,3.4,0.3c1.1,0.2,2.3,0.5,3.3,0.8c1.1,0.4,2.2,0.8,3.2,1.3
			C73,92.7,73.9,93.3,74.8,94.1z"/>
	</g>
	<path id="XMLID_133_" class="st9" d="M158.3,96.9c0-0.1-0.1-0.1-0.1-0.2c0-0.3-0.2-0.5-0.4-0.6c0,0-0.4-0.1-0.5-0.1
		c-0.2-0.1-0.5-0.1-0.7,0c-0.1,0-0.7,0.2-0.8,0.3c-0.4,0.2-0.6,0.5-0.8,1c-0.2,0.2-0.2,0.6,0.1,0.8c0.6,0.3,1.3,0.7,2,0.5
		c0.2,0,0.5-0.1,0.6-0.3c0.2-0.2,0.3-0.4,0.3-0.7c0.1-0.2,0.1-0.2,0.1-0.4C158.2,97.3,158.3,97,158.3,96.9z"/>
	<path id="XMLID_132_" class="st9" d="M143.9,97c0,0,0-0.1-0.1-0.1c0-0.2-0.1-0.3-0.3-0.4c0,0-0.2-0.1-0.3-0.1c-0.1,0-0.3,0-0.4,0
		c-0.1,0-0.4,0.1-0.5,0.2c-0.3,0.1-0.4,0.3-0.5,0.6c-0.1,0.2-0.1,0.4,0,0.5c0.4,0.2,0.8,0.4,1.2,0.3c0.1,0,0.3-0.1,0.4-0.2
		c0.1-0.1,0.2-0.2,0.2-0.4c0.1-0.1,0.1-0.1,0.1-0.2C143.8,97.3,143.9,97.1,143.9,97z"/>
	<path id="XMLID_131_" class="st9" d="M69.7,93.7c0,0,0-0.1-0.1-0.1c0-0.2-0.1-0.3-0.3-0.4c0,0-0.2-0.1-0.3-0.1c-0.1,0-0.3,0-0.4,0
		c-0.1,0-0.4,0.1-0.5,0.2c-0.3,0.1-0.4,0.3-0.5,0.6c-0.1,0.2-0.1,0.4,0,0.5c0.4,0.2,0.8,0.4,1.2,0.3c0.1,0,0.3-0.1,0.4-0.2
		c0.1-0.1,0.2-0.2,0.2-0.4c0.1-0.1,0.1-0.1,0.1-0.2C69.6,93.9,69.7,93.7,69.7,93.7z"/>
	<path id="XMLID_130_" class="st9" d="M61.8,94.7C61.8,94.7,61.8,94.7,61.8,94.7c-0.1-0.2-0.1-0.3-0.2-0.3c0,0-0.1,0-0.2-0.1
		c-0.1,0-0.2,0-0.3,0c-0.1,0-0.3,0.1-0.3,0.1c-0.2,0.1-0.2,0.2-0.3,0.4c-0.1,0.1-0.1,0.2,0,0.3c0.2,0.1,0.5,0.3,0.8,0.2
		c0.1,0,0.2,0,0.2-0.1c0.1-0.1,0.1-0.2,0.1-0.3c0-0.1,0-0.1,0.1-0.2C61.8,94.9,61.8,94.8,61.8,94.7z"/>
	<path id="XMLID_129_" class="st9" d="M64.8,92.7C64.8,92.7,64.8,92.7,64.8,92.7c0-0.1-0.1-0.2-0.2-0.2c0,0-0.1,0-0.1,0
		c-0.1,0-0.1,0-0.2,0c0,0-0.2,0.1-0.2,0.1c-0.1,0.1-0.2,0.2-0.2,0.3c0,0.1-0.1,0.2,0,0.2c0.2,0.1,0.4,0.2,0.6,0.2
		c0.1,0,0.1,0,0.2-0.1c0.1-0.1,0.1-0.1,0.1-0.2C64.7,92.9,64.7,92.9,64.8,92.7C64.7,92.8,64.8,92.7,64.8,92.7z"/>
	<path id="XMLID_8_" class="st12" d="M160.8,127c5.1-1,10.7-3.9,16.8-5.4l7.3-1.6c7-2,12.5-4.8,12.5-4.8c8.1-5.8,7.7-6.3,7.7-6.3
		l-5.3,0.4c-1.4,0.4-7.5,1-7.5,1c4.3-4,11.5-7.8,11.5-7.8c-4.6-8.3-35.1-11.9-35.1-11.9l-7.8-0.6c0,0-70.5-0.5-94.1,6.3
		c0,0-11.7,0.3-13.2-0.5l-5.1-2c0,0-6.6-2.6-10.5-4.7c0,0-22.2-10.3-27.9-10.1c0,0-1.3,0.1,9.2,21.7c0,0,2.8,3.8-1.9,9.6
		c0,0-8.9,14.2-8.9,19.2c0,0,9.2,2.2,32.8-12.6c0,0,11.7-5,13.2-4.7"/>
	<path id="XMLID_127_" class="st13" d="M197.7,108.1"/>
	<path id="XMLID_126_" class="st9" d="M148.5,102.5c0,0,0-0.1-0.1-0.1c0-0.2-0.1-0.3-0.3-0.4c0,0-0.2-0.1-0.3-0.1
		c-0.1,0-0.3,0-0.4,0c-0.1,0-0.4,0.1-0.5,0.2c-0.3,0.1-0.4,0.3-0.5,0.6c-0.1,0.2-0.1,0.4,0,0.5c0.4,0.2,0.8,0.4,1.2,0.3
		c0.1,0,0.3-0.1,0.4-0.2c0.1-0.1,0.2-0.2,0.2-0.4c0.1-0.1,0.1-0.1,0.1-0.2C148.5,102.8,148.6,102.6,148.5,102.5z"/>
	<path id="XMLID_125_" class="st9" d="M114.6,98.3c0,0,0-0.1-0.1-0.1c0-0.2-0.1-0.3-0.3-0.4c0,0-0.2-0.1-0.3-0.1c-0.1,0-0.3,0-0.4,0
		c-0.1,0-0.4,0.1-0.5,0.2c-0.3,0.1-0.4,0.3-0.5,0.6c-0.1,0.2-0.1,0.4,0,0.5c0.4,0.2,0.8,0.4,1.2,0.3c0.1,0,0.3-0.1,0.4-0.2
		c0.1-0.1,0.2-0.2,0.2-0.4c0.1-0.1,0.1-0.1,0.1-0.2C114.5,98.6,114.6,98.4,114.6,98.3z"/>
	<path id="XMLID_124_" class="st9" d="M79.7,100.3c0-0.1-0.1-0.1-0.1-0.2c0-0.3-0.2-0.5-0.4-0.6c0,0-0.4-0.1-0.5-0.1
		c-0.2-0.1-0.5-0.1-0.7,0c-0.1,0-0.7,0.2-0.8,0.3c-0.4,0.2-0.6,0.5-0.8,1c-0.2,0.2-0.2,0.6,0.1,0.8c0.6,0.3,1.3,0.7,2,0.5
		c0.2,0,0.5-0.1,0.6-0.3c0.2-0.2,0.3-0.4,0.3-0.7c0.1-0.2,0.1-0.2,0.1-0.4C79.6,100.7,79.7,100.4,79.7,100.3z"/>
	<path id="XMLID_123_" class="st9" d="M83.2,109.3c0-0.1-0.1-0.1-0.1-0.2c0-0.3-0.2-0.5-0.4-0.6c0,0-0.4-0.1-0.5-0.1
		c-0.2-0.1-0.5-0.1-0.7,0c-0.1,0-0.7,0.2-0.8,0.3c-0.4,0.2-0.6,0.5-0.8,1c-0.2,0.2-0.2,0.6,0.1,0.8c0.6,0.3,1.3,0.7,2,0.5
		c0.2,0,0.5-0.1,0.6-0.3c0.2-0.2,0.3-0.4,0.3-0.7c0.1-0.2,0.1-0.2,0.1-0.4C83.1,109.7,83.2,109.4,83.2,109.3z"/>
	<path id="XMLID_122_" class="st9" d="M90.5,102.5c0,0,0-0.1-0.1-0.1c0-0.2-0.1-0.3-0.3-0.4c0,0-0.2-0.1-0.3-0.1c-0.1,0-0.3,0-0.4,0
		c-0.1,0-0.4,0.1-0.5,0.2c-0.3,0.1-0.4,0.3-0.5,0.6c-0.1,0.2-0.1,0.4,0,0.5c0.4,0.2,0.8,0.4,1.2,0.3c0.1,0,0.3-0.1,0.4-0.2
		c0.1-0.1,0.2-0.2,0.2-0.4c0.1-0.1,0.1-0.1,0.1-0.2C90.4,102.8,90.5,102.6,90.5,102.5z"/>
	<path id="XMLID_121_" class="st9" d="M104.1,96.3C104.1,96.3,104.1,96.2,104.1,96.3c-0.1-0.2-0.1-0.3-0.2-0.3c0,0-0.2,0-0.2-0.1
		c-0.1,0-0.2,0-0.3,0c-0.1,0-0.3,0.1-0.3,0.1c-0.2,0.1-0.3,0.2-0.4,0.4c-0.1,0.1-0.1,0.3,0,0.3c0.3,0.1,0.6,0.3,0.9,0.2
		c0.1,0,0.2,0,0.3-0.1c0.1-0.1,0.1-0.2,0.1-0.3c0-0.1,0-0.1,0.1-0.2C104.1,96.5,104.2,96.3,104.1,96.3z"/>
	<path id="XMLID_120_" class="st9" d="M125.7,101.8C125.6,101.8,125.6,101.7,125.7,101.8c-0.1-0.2-0.1-0.3-0.2-0.3
		c0,0-0.2,0-0.2-0.1c-0.1,0-0.2,0-0.3,0c-0.1,0-0.3,0.1-0.3,0.1c-0.2,0.1-0.3,0.2-0.4,0.4c-0.1,0.1-0.1,0.3,0,0.3
		c0.3,0.1,0.6,0.3,0.9,0.2c0.1,0,0.2,0,0.3-0.1c0.1-0.1,0.1-0.2,0.1-0.3c0-0.1,0-0.1,0.1-0.2C125.6,102,125.7,101.8,125.7,101.8z"/>
	<path id="XMLID_119_" class="st9" d="M156.1,103.4C156,103.4,156,103.3,156.1,103.4c-0.1-0.2-0.1-0.3-0.2-0.3c0,0-0.2,0-0.2-0.1
		c-0.1,0-0.2,0-0.3,0c-0.1,0-0.3,0.1-0.3,0.1c-0.2,0.1-0.3,0.2-0.4,0.4c-0.1,0.1-0.1,0.3,0,0.3c0.3,0.1,0.6,0.3,0.9,0.2
		c0.1,0,0.2,0,0.3-0.1c0.1-0.1,0.1-0.2,0.1-0.3c0-0.1,0-0.1,0.1-0.2C156,103.6,156.1,103.4,156.1,103.4z"/>
	<path id="XMLID_118_" class="st9" d="M196.4,107.5c0,0-4.2,4.2-5.6,3.5c0,0,7.4,4,15.4-2.8L196.4,107.5z"/>
	<g id="XMLID_115_">
		<path id="XMLID_117_" class="st9" d="M195.9,103.7c0,0-1.1,0.6-2.8,1.6c-0.8,0.5-1.8,1.1-2.8,1.7c-1,0.7-2.1,1.4-2.9,2.3
			c-0.4,0.4-0.9,0.9-0.9,1.3c0,0.1,0,0.2,0,0.2c0,0.1,0.1,0.2,0.1,0.2c0.1,0.1,0.3,0.2,0.5,0.3c0.4,0.1,1,0,1.5-0.1
			c0.2-0.1,0.5-0.1,0.7-0.2c0.2-0.1,0.5-0.2,0.7-0.3c0.9-0.4,1.6-0.7,2.1-1c0.5-0.3,0.8-0.4,0.8-0.4l0.1,0.1c0,0-0.2,0.2-0.7,0.6
			c-0.2,0.2-0.5,0.4-0.8,0.6c-0.3,0.2-0.7,0.5-1.1,0.8c-0.4,0.3-0.9,0.5-1.5,0.7c-0.5,0.2-1.2,0.4-2,0.2c-0.8-0.1-1.6-0.9-1.4-1.9
			c0.3-0.8,0.8-1.3,1.3-1.7c1-0.9,2.1-1.6,3.2-2.2c1.1-0.6,2.1-1.1,2.9-1.5C194.7,104.1,195.9,103.6,195.9,103.7L195.9,103.7z"/>
	</g>
	<g id="XMLID_112_">
		<path id="XMLID_308_" class="st9" d="M171.9,96c-1.5,1.8-2.7,3.9-3.7,6c-1,2.1-1.7,4.3-1.8,6.6c-0.1,1.1,0,2.2,0.3,3.3
			c0.3,1,0.8,2,1.4,2.9c0.6,0.9,1.4,1.7,2.2,2.4c0.8,0.7,1.7,1.4,2.7,2.1l0.2,0.2l0.1,0.1c0,0.1,0.2,0.3,0.2,0.4
			c0.1,0.1,0.2,0.3,0.3,0.4c0.2,0.3,0.5,0.5,0.7,0.7c0.1,0.1,0.3,0.2,0.4,0.3c0.2,0.1,0.3,0.2,0.5,0.2c0.2,0.1,0.3,0.1,0.5,0.1
			c0.2,0,0.4,0,0.6,0.1l0,0.2c-0.2,0.1-0.4,0.2-0.6,0.2c-0.2,0-0.4,0.1-0.7,0.1c-0.2,0-0.4,0-0.7-0.1c-0.2,0-0.4-0.1-0.6-0.2
			c-0.4-0.2-0.8-0.4-1.2-0.7c-0.2-0.1-0.3-0.3-0.5-0.4c-0.2-0.2-0.3-0.3-0.5-0.5l0.3,0.3c-0.6-0.3-1.1-0.5-1.6-0.9
			c-0.5-0.3-1.1-0.7-1.6-1.1c-1-0.8-1.9-1.7-2.5-2.9c-1.4-2.2-1.8-4.9-1.5-7.4c0.3-2.5,1.2-4.8,2.5-6.9c1.2-2.1,2.7-4,4.4-5.7
			L171.9,96z"/>
	</g>
	<g id="XMLID_109_">
		<path id="XMLID_111_" class="st9" d="M174.4,101.3c-0.2,0.6-0.4,1.2-0.5,1.8c-0.1,0.6-0.3,1.3-0.3,1.9c-0.1,0.6-0.1,1.3-0.1,1.9
			c0,0.3,0,0.6,0,0.9l0.1,0.9l0.2,0.9c0,0.3,0.2,0.6,0.2,0.9c0.1,0.3,0.2,0.6,0.3,0.9c0.1,0.3,0.2,0.6,0.4,0.8l0.5,0.8
			c0.2,0.2,0.4,0.5,0.6,0.7l0.3,0.3l0.3,0.3l0.7,0.6l-0.2-0.1c0.9,0.3,1.8,0.6,2.7,0.8c0.4,0.1,0.9,0.2,1.3,0.2c0.2,0,0.4,0,0.6,0
			c0.1,0,0.1,0,0.2,0c0.1,0,0,0,0,0l-0.4,0.7l0-1l0-1c0-0.6-0.1-1.3-0.2-1.9c0-0.3-0.1-0.6-0.2-0.9c-0.1-0.3-0.2-0.6-0.3-0.8
			c-0.1-0.1-0.1-0.3-0.2-0.4c-0.1-0.1-0.1-0.2-0.2-0.3c-0.1-0.1-0.2-0.2-0.2-0.3c-0.1-0.1-0.2-0.2-0.3-0.2l-0.4-0.3l0-0.2
			c-0.1-0.5-0.1-0.9-0.1-1.4c0-0.5,0-0.9,0-1.4c0.1-0.9,0.3-1.9,0.7-2.7l0.2,0.1c-0.1,0.9,0,1.7,0.1,2.6c0.1,0.4,0.2,0.8,0.2,1.3
			c0.1,0.4,0.2,0.8,0.3,1.2l-0.4-0.5l0.6,0.3c0.2,0.1,0.3,0.3,0.5,0.4c0.2,0.1,0.3,0.3,0.4,0.5c0.1,0.2,0.2,0.3,0.3,0.5
			c0.2,0.4,0.4,0.7,0.5,1.1c0.1,0.4,0.2,0.7,0.3,1.1c0.2,0.7,0.3,1.5,0.3,2.2c0,0.4,0,0.7,0,1.1c0,0.4,0,0.7-0.1,1.1l-0.1,0.6
			l-0.4,0.2c-0.2,0.1-0.5,0.2-0.6,0.2c-0.2,0-0.4,0.1-0.5,0.1c-0.3,0-0.6,0-0.9-0.1c-0.5-0.1-1-0.2-1.5-0.3c-1-0.3-1.9-0.6-2.8-1
			l-0.1-0.1l-0.1-0.1l-0.7-0.7L175,115l-0.3-0.4c-0.2-0.3-0.4-0.5-0.6-0.8l-0.5-0.9c-0.2-0.3-0.2-0.6-0.4-1c-0.1-0.3-0.2-0.6-0.3-1
			c-0.1-0.3-0.2-0.7-0.2-1l-0.1-1l0-1c0-0.3,0-0.7,0.1-1c0.1-0.7,0.2-1.3,0.3-1.9c0.3-1.3,0.7-2.5,1.2-3.7L174.4,101.3z"/>
	</g>
	<path id="XMLID_108_" class="st14" d="M19.1,107.8"/>
	<path id="XMLID_107_" class="st14" d="M15.1,115.6"/>
	<g id="XMLID_104_">
		<path id="XMLID_178_" class="st9" d="M191.6,103.8c0,0-0.4,0.3-1.1,0.6c-0.4,0.1-0.8,0.2-1.2,0.3c-0.5,0-1-0.1-1.5-0.2
			c-0.2,0-0.5-0.1-0.7-0.2c-0.2-0.1-0.5-0.2-0.7-0.3c-0.2-0.1-0.4-0.3-0.6-0.4c-0.2-0.2-0.3-0.3-0.4-0.5c-0.1-0.2-0.2-0.3-0.3-0.4
			c-0.1-0.1-0.1-0.3-0.1-0.4c-0.1-0.2-0.1-0.3-0.1-0.3l0.1,0c0,0,0.1,0.1,0.2,0.3c0.1,0.1,0.1,0.2,0.2,0.3c0.1,0.1,0.2,0.2,0.3,0.3
			c0.1,0.1,0.3,0.2,0.4,0.3c0.2,0.1,0.3,0.2,0.5,0.2c0.2,0.1,0.4,0.1,0.6,0.2c0.2,0,0.4,0.1,0.7,0.1c0.4,0,0.9,0,1.3-0.1
			c0.4,0,0.8,0,1.2,0C191,103.6,191.6,103.7,191.6,103.8L191.6,103.8z"/>
	</g>
	<g id="XMLID_13_">
		<path id="XMLID_33_" class="st9" d="M121.8,122c-0.2,1.7-0.6,3.4-1.1,5.1c-0.2,0.8-0.5,1.7-0.8,2.5c-0.3,0.8-0.6,1.7-1,2.5
			c-0.7,1.6-1.5,3.2-2.7,4.7c-0.3,0.4-0.6,0.7-0.9,1.1c-0.3,0.3-0.7,0.7-1,1c-0.4,0.3-0.8,0.6-1.2,0.8l-0.7,0.3l-0.7,0.3l-0.5,0.2
			l-0.4-0.5c-0.3-0.3-0.5-0.6-0.8-0.8c-0.2-0.3-0.5-0.6-0.7-0.8c-0.4-0.6-0.8-1.2-1.2-1.8c-0.8-1.2-1.4-2.5-2-3.8
			c-0.3-0.6-0.5-1.3-0.8-2c-0.2-0.7-0.4-1.3-0.6-2c-0.3-1.4-0.6-2.8-0.7-4.2l0-0.1l0-0.1c0-0.2,0.1-0.4,0.1-0.5
			c0.1-0.2,0.1-0.3,0.2-0.5c0.1-0.3,0.3-0.6,0.6-0.9c0.2-0.3,0.5-0.5,0.9-0.7c0.3-0.2,0.7-0.2,1.1-0.3l0.1,0l0.1,0
			c0.7,0.3,1.5,0.5,2.2,0.6c0.4,0.1,0.8,0.1,1.2,0.1c0.4,0,0.8-0.1,1.1-0.3c-0.6,0.5-1.5,0.7-2.3,0.7c-0.8,0-1.6-0.1-2.5-0.3l0.2,0
			c-0.5,0.1-0.9,0.4-1.2,0.8c-0.1,0.2-0.2,0.4-0.3,0.7c0,0.1-0.1,0.3-0.1,0.4c0,0.1-0.1,0.3-0.1,0.4l0-0.2c0.3,1.3,0.6,2.6,1,3.9
			c0.2,0.6,0.4,1.3,0.7,1.9c0.3,0.6,0.5,1.2,0.8,1.8c0.6,1.2,1.2,2.4,1.9,3.5c0.4,0.6,0.7,1.1,1.1,1.6c0.2,0.3,0.4,0.5,0.6,0.8
			c0.2,0.2,0.4,0.5,0.6,0.7l-1-0.2l0.5-0.2l0.5-0.2c0.3-0.2,0.6-0.4,0.9-0.6c0.3-0.3,0.6-0.5,0.9-0.8c0.3-0.3,0.6-0.6,0.8-0.9
			c0.5-0.6,1-1.3,1.5-2c0.5-0.7,0.9-1.4,1.3-2.2C119.2,128.5,120.6,125.3,121.8,122z"/>
	</g>
	<path id="XMLID_102_" class="st15" d="M109.2,127.2"/>
	<g id="XMLID_99_">
		<path id="XMLID_101_" class="st9" d="M109.2,136.7c0,0,0.5-0.4,1.2-1.1c0.7-0.7,1.7-1.6,2.6-2.6c0.9-1,1.7-2,2.2-2.9
			c0.1-0.2,0.2-0.4,0.3-0.6c0.1-0.2,0.2-0.3,0.2-0.5c0.1-0.3,0.2-0.4,0.2-0.4s0,0.2-0.1,0.4c0,0.1-0.1,0.3-0.2,0.5
			c-0.1,0.2-0.1,0.4-0.3,0.6c-0.4,0.9-1.1,2.1-2,3.1c-1.6,2.2-3.5,4.1-3.5,4.1c-0.2,0.2-0.5,0.2-0.7,0S109,137,109.2,136.7
			C109.2,136.8,109.2,136.7,109.2,136.7z"/>
	</g>
	<g id="XMLID_96_">
		<path id="XMLID_98_" class="st9" d="M106.5,130.5c0,0,0.1,0,0.3,0.1c0.2,0,0.5,0.1,0.8,0c0.4,0,0.8-0.1,1.2-0.2
			c0.4-0.1,0.9-0.3,1.3-0.5c0.2-0.1,0.4-0.2,0.6-0.4c0.2-0.1,0.4-0.3,0.6-0.4c0.4-0.3,0.7-0.6,1-0.9c0.3-0.3,0.5-0.5,0.6-0.7
			c0.1-0.2,0.2-0.3,0.2-0.3s-0.1,0.1-0.2,0.3c-0.1,0.2-0.3,0.5-0.5,0.8c-0.2,0.3-0.5,0.7-0.9,1c-0.2,0.2-0.4,0.3-0.6,0.5
			c-0.2,0.2-0.4,0.3-0.6,0.5c-0.4,0.3-0.9,0.6-1.4,0.8c-0.5,0.2-0.9,0.3-1.3,0.4c-0.4,0.1-0.8,0.1-1,0.1c-0.2,0-0.4,0-0.4,0
			L106.5,130.5z"/>
	</g>
	<g id="XMLID_10_">
		<path id="XMLID_35_" class="st9" d="M82,118.6c-0.5,1.1-1.1,2.1-1.8,3.1c-0.7,1-1.4,1.9-2.2,2.9c-0.4,0.5-0.8,0.9-1.2,1.3
			c-0.4,0.4-0.8,0.9-1.3,1.3c-0.4,0.4-0.9,0.8-1.4,1.2c-0.5,0.4-1,0.7-1.5,1.1l0.2-0.1c-0.6,0.7-1.2,1.3-1.9,1.8
			c-0.4,0.3-0.7,0.6-1.2,0.8c-0.2,0.1-0.5,0.2-0.7,0.3c-0.3,0.1-0.6,0.2-1.2,0.1c0.1,0-0.4-0.2-0.5-0.2c-0.1-0.1-0.2-0.2-0.3-0.4
			c-0.1-0.2-0.2-0.4-0.2-0.6c-0.1-0.3-0.1-0.6-0.1-0.8c0-0.5,0-0.9,0.1-1.3c0.1-0.8,0.2-1.7,0.2-2.5l0,0.4c-0.1-0.5-0.3-1-0.5-1.5
			c-0.2-0.5-0.4-1-0.7-1.5c-0.5-1-1-1.9-1.6-2.8c-0.3-0.4-0.6-0.9-0.9-1.3c-0.3-0.4-0.7-0.8-1-1.2l-0.3-0.3
			c-0.1-0.1-0.2-0.2-0.3-0.4c-0.2-0.3-0.4-0.6-0.5-1c-0.1-0.4-0.1-1,0.2-1.3c0.3-0.3,0.6-0.5,0.9-0.6l0.4,0c-0.1,0-0.1,0-0.1,0
			c0,0,0,0,0,0l0.1,0l0.1,0l0.3,0l0.6-0.1l1.3-0.1l2.5-0.3c-0.8,0.3-1.6,0.6-2.4,0.8c-0.4,0.1-0.8,0.2-1.2,0.4l-0.6,0.2L63,116
			l-0.2,0l-0.1,0l-0.1,0c0,0,0,0-0.2,0l0.4,0c-0.2,0.1-0.4,0.3-0.4,0.4c0,0.1,0,0.2,0,0.3c0.1,0.1,0.2,0.3,0.3,0.4
			c0.1,0.1,0.2,0.1,0.2,0.2l0.3,0.3c0.4,0.4,0.9,0.8,1.3,1.2c0.4,0.4,0.8,0.9,1.1,1.3c0.7,0.9,1.3,1.9,1.9,2.9
			c0.3,0.5,0.5,1,0.7,1.6l0.3,0.8c0.1,0.3,0.2,0.5,0.3,0.8l0.1,0.2l0,0.2c-0.1,0.9-0.1,1.7-0.2,2.5c0,0.4-0.1,0.8-0.1,1.2
			c0,0.2,0,0.3,0,0.4c0,0,0,0.1,0,0c0,0-0.1-0.1-0.1-0.1c0,0-0.1,0-0.1-0.1c0,0-0.1,0-0.1,0l0,0c-0.2,0-0.1,0,0,0
			c0.1,0,0.3-0.1,0.4-0.2c0.3-0.2,0.6-0.4,0.9-0.6c0.6-0.5,1.2-1,1.8-1.6l0.1-0.1l0.1-0.1c0.5-0.3,1-0.6,1.4-1
			c0.5-0.3,0.9-0.7,1.4-1c0.9-0.7,1.8-1.5,2.6-2.3C78.8,122.1,80.4,120.4,82,118.6z"/>
	</g>
	<g id="XMLID_90_">
		<polygon id="XMLID_151_" class="st9" points="63.4,118.1 67.5,117.7 64.1,120 		"/>
	</g>
	<path id="XMLID_89_" class="st16" d="M66.7,123"/>
	<g id="XMLID_82_">
		<polygon id="XMLID_95_" class="st9" points="66.3,122.1 73,119.9 67.1,123.9 		"/>
	</g>
	<path id="XMLID_79_" class="st16" d="M67.5,126.6"/>
	<g id="XMLID_76_">
		<polygon id="XMLID_92_" class="st9" points="67.2,125.7 76,121.4 68.3,127.4 		"/>
	</g>
	<g id="XMLID_73_">
		<path id="XMLID_162_" class="st9" d="M49.7,112.5c0,0,1.2-0.6,3-1.3c1.8-0.7,4.3-1.6,6.8-2.2c0.6-0.2,1.3-0.3,1.9-0.4
			c0.6-0.1,1.3-0.2,1.9-0.3c0.6-0.1,1.2-0.2,1.7-0.2c0.6,0,1.1-0.1,1.6-0.1c0.5,0,0.9,0,1.3,0c0.4,0,0.7,0.1,1,0.1
			c0.6,0.1,0.9,0.1,0.9,0.1s-0.3,0-0.9,0c-0.3,0-0.6,0-1,0c-0.4,0-0.8,0-1.3,0.1c-0.5,0.1-1,0.2-1.5,0.2c-0.5,0.1-1.1,0.2-1.7,0.4
			c-0.6,0.2-1.2,0.3-1.8,0.5c-0.6,0.2-1.2,0.4-1.8,0.6c-2.4,0.9-4.7,1.9-6.4,2.8c-1.7,0.9-2.8,1.5-2.8,1.5L49.7,112.5z"/>
	</g>
	<g id="XMLID_69_">
		<path id="XMLID_72_" class="st9" d="M71.9,112.2c0,0,4.7,0.8,11.8,2.1c3.5,0.6,7.7,1.3,12.1,2c4.4,0.7,9.1,1.4,13.9,2.1
			c4.7,0.7,9.5,1.3,13.9,1.7c2.2,0.2,4.4,0.4,6.4,0.6c2,0.1,4,0.2,5.8,0.3c1.8,0,3.4,0,4.9,0c1.5,0,2.7-0.2,3.7-0.3
			c1-0.2,1.8-0.3,2.4-0.5c0.5-0.1,0.8-0.2,0.8-0.2s-0.3,0.1-0.8,0.3c-0.5,0.2-1.3,0.4-2.4,0.6c-1,0.2-2.3,0.4-3.8,0.5
			c-1.5,0.1-3.1,0.2-4.9,0.2c-1.8,0-3.7,0-5.8-0.1c-2.1-0.1-4.2-0.2-6.5-0.4c-4.5-0.4-9.2-1-14-1.6c-4.7-0.7-9.5-1.5-13.9-2.2
			c-4.4-0.8-8.5-1.6-12-2.3c-3.5-0.7-6.4-1.4-8.5-1.8C73.1,112.5,71.9,112.2,71.9,112.2z"/>
	</g>
	<g id="XMLID_6_">
		<path id="XMLID_84_" class="st9" d="M149.4,124.7c0,0,0.8-0.5,2-1.2c1.2-0.6,2.9-1.4,4.7-1.9c0.4-0.1,0.9-0.2,1.3-0.4
			c0.4-0.1,0.9-0.2,1.3-0.2c0.4,0,0.8-0.1,1.2-0.1c0.4,0,0.8,0,1.1,0c0.3,0,0.7,0.1,0.9,0.1c0.3,0,0.5,0.1,0.7,0.1
			c0.4,0.1,0.6,0.1,0.6,0.1s-0.2,0-0.6-0.1c-0.2,0-0.4-0.1-0.7-0.1c-0.3,0-0.6,0-0.9,0c-0.3,0-0.7,0.1-1.1,0.1
			c-0.4,0.1-0.8,0.2-1.2,0.2c-0.4,0.1-0.8,0.2-1.2,0.4c-0.4,0.2-0.8,0.3-1.2,0.5c-1.6,0.7-3.2,1.6-4.3,2.3c-1.1,0.7-1.8,1.3-1.8,1.3
			c-0.3,0.3-0.8,0.2-1.1-0.1C149,125.5,149,125,149.4,124.7C149.4,124.8,149.4,124.7,149.4,124.7L149.4,124.7z"/>
	</g>
	<g id="XMLID_3_">
		<path id="XMLID_78_" class="st9" d="M147.1,129.5c0,0,2.7-1.3,5.5-2.5c1.4-0.6,2.8-1.1,3.9-1.4c0.3-0.1,0.5-0.1,0.7-0.2
			c0.2-0.1,0.4-0.1,0.6-0.1c0.2,0,0.3,0,0.4,0c0.1,0,0.1,0,0.1,0s0,0-0.1,0c-0.1,0-0.2,0-0.4,0c-0.2,0-0.3,0.1-0.6,0.2
			c-0.2,0.1-0.4,0.2-0.7,0.3c-1,0.4-2.3,1.2-3.6,1.9c-2.6,1.5-5.1,3.1-5.1,3.1c-0.3,0.2-0.8,0.1-1-0.2
			C146.6,130.2,146.7,129.8,147.1,129.5C147.1,129.5,147.1,129.5,147.1,129.5z"/>
	</g>
	<path id="XMLID_2_" class="st9" d="M47.1,110.6c0-0.1-0.1-0.1-0.1-0.2c0-0.3-0.2-0.5-0.4-0.6c0,0-0.4-0.1-0.5-0.1
		c-0.2-0.1-0.5-0.1-0.7,0c-0.1,0-0.7,0.2-0.8,0.3c-0.4,0.2-0.6,0.5-0.8,1c-0.2,0.2-0.2,0.6,0.1,0.8c0.6,0.3,1.3,0.7,2,0.5
		c0.2,0,0.5-0.1,0.6-0.3c0.2-0.2,0.3-0.4,0.3-0.7c0.1-0.2,0.1-0.2,0.1-0.4C47,111,47.2,110.7,47.1,110.6z"/>
	<g id="XMLID_303_">
		<path id="XMLID_310_" class="st9" d="M185,93.7c0,0,0,0.6-0.1,1.2c-0.1,0.3-0.2,0.6-0.4,0.9c-0.2,0.3-0.6,0.4-0.8,0.7
			c-0.5,0.5-0.9,1.1-1.1,1.6c-0.1,0.2-0.2,0.5-0.2,0.6c0,0.2,0,0.3,0,0.3l-0.2,0c0,0,0-0.1-0.1-0.3c0-0.1-0.1-0.2-0.1-0.3
			c0-0.1-0.1-0.3-0.1-0.4c0-0.3,0-0.7,0.1-1.1c0.1-0.4,0.2-0.8,0.4-1.2c0.2-0.4,0.3-0.8,0.5-1.2c0.2-0.3,0.6-0.5,0.9-0.7
			c0.6-0.3,1.2-0.2,1.2-0.2L185,93.7z"/>
	</g>
	<path id="XMLID_113_" class="st9" d="M178.6,96.1c0,0,0-0.1-0.1-0.1c0-0.2-0.1-0.3-0.3-0.4c0,0-0.2-0.1-0.3-0.1c-0.1,0-0.3,0-0.4,0
		c-0.1,0-0.4,0.1-0.5,0.2c-0.3,0.1-0.4,0.3-0.5,0.6c-0.1,0.2-0.1,0.4,0,0.5c0.4,0.2,0.8,0.4,1.2,0.3c0.1,0,0.3-0.1,0.4-0.2
		c0.1-0.1,0.2-0.2,0.2-0.4c0.1-0.1,0.1-0.1,0.1-0.2C178.6,96.3,178.7,96.1,178.6,96.1z"/>
	<g id="XMLID_160_">
		<path id="XMLID_318_" class="st9" d="M61.9,95c0,0-1.4,0.8-3.7,1.6c-1.1,0.4-2.5,0.8-3.9,1.2c-0.7,0.1-1.5,0.3-2.3,0.4
			c-0.8,0.1-1.6,0.2-2.4,0.3c-1.6,0.2-3.2,0.4-4.7,0.5C44.2,99,43.5,99,42.8,99c-0.7,0-1.3,0-1.9-0.1c-0.6,0-1.2-0.1-1.6-0.2
			c-0.5-0.1-0.9-0.1-1.2-0.2c-0.7-0.2-1.1-0.3-1.1-0.3l0-0.1c0,0,0.4,0.1,1.1,0.1c0.3,0.1,0.8,0.1,1.2,0.1c0.5,0,1,0.1,1.6,0
			c0.6,0,1.2,0,1.9-0.1c0.7-0.1,1.4-0.1,2.1-0.2c1.5-0.2,3-0.5,4.6-0.8c1.5-0.3,3.1-0.7,4.5-1.1c1.4-0.3,2.8-0.6,4-0.8
			c2.3-0.4,4-0.6,4-0.6L61.9,95z"/>
	</g>
	<path id="XMLID_4_" class="st9" d="M55.2,101.8c0,0,0-0.1-0.1-0.1c0-0.2-0.1-0.3-0.3-0.4c0,0-0.2-0.1-0.3-0.1c-0.1,0-0.3,0-0.4,0
		c-0.1,0-0.4,0.1-0.5,0.2c-0.3,0.1-0.4,0.3-0.5,0.6c-0.1,0.2-0.1,0.4,0,0.5c0.4,0.2,0.8,0.4,1.2,0.3c0.1,0,0.3-0.1,0.4-0.2
		c0.1-0.1,0.2-0.2,0.2-0.4c0.1-0.1,0.1-0.1,0.1-0.2C55.2,102,55.2,101.9,55.2,101.8z"/>
</g>
</svg>
